<svg width="1356" height="146" viewBox="0 0 1356 146" fill="none" xmlns="http://www.w3.org/2000/svg">
<rect width="1356" height="146" rx="12" fill="#282828"/>
<mask id="mask0_90_1499" style="mask-type:alpha" maskUnits="userSpaceOnUse" x="0" y="0" width="1356" height="146">
<rect width="1356" height="146" rx="12" fill="#282828"/>
</mask>
<g mask="url(#mask0_90_1499)">
<mask id="mask1_90_1499" style="mask-type:alpha" maskUnits="userSpaceOnUse" x="-91" y="-17" width="435" height="171">
<rect x="344" y="-17" width="171" height="435" transform="rotate(90 344 -17)" fill="#D9D9D9"/>
</mask>
<g mask="url(#mask1_90_1499)">
<path d="M50.9419 69.7812C50.9419 100.172 26.0916 124.898 -4.45207 124.894L-4.45207 155.605C43.1124 155.605 81.8071 117.104 81.8071 69.7772L50.9419 69.7772L50.9419 69.7812Z" fill="#19D89F"/>
<path d="M137.177 14.668C106.633 14.668 81.7872 39.3941 81.7872 69.7852L50.9219 69.7852C50.9219 22.4583 89.6167 -16.0431 137.181 -16.0431L137.181 14.668L137.177 14.668Z" fill="#5959EB"/>
<path d="M137.177 155.613C106.633 155.613 81.7828 180.339 81.7828 210.73L50.9176 210.73C50.9176 163.404 89.6123 124.902 137.177 124.902L137.177 155.613Z" fill="#5959EB"/>
<path d="M192.567 69.7812C192.567 39.3901 167.717 14.664 137.173 14.668L137.173 -16.0431C184.737 -16.0431 223.432 22.4584 223.432 69.7852L192.567 69.7852L192.567 69.7812Z" fill="#5959EB"/>
<path d="M-4.45206 155.609C25.6708 155.609 50.255 179.656 50.926 209.466C51.184 191.76 56.8537 175.338 66.3626 161.764C60.4905 153.385 53.1573 146.089 44.7362 140.25C30.7766 149.925 13.8154 155.606 -4.45206 155.606M81.7833 210.723L81.8071 210.723C81.8071 210.3 81.8071 209.877 81.7992 209.455C81.7912 209.873 81.7833 210.3 81.7833 210.723Z" fill="white"/>
<path opacity="0.6" d="M-4.45201 140.254L-4.45201 155.609C13.8154 155.609 30.7727 149.929 44.7323 140.254C30.7727 130.579 13.8115 124.898 -4.45597 124.898L-4.45598 140.254L-4.45201 140.254Z" fill="white"/>
<path d="M192.567 69.7812C192.567 100.172 167.717 124.898 137.173 124.894L137.173 155.605C184.737 155.605 223.432 117.104 223.432 69.7772L192.567 69.7772L192.567 69.7812Z" fill="#43509B"/>
<path d="M208.829 162.309C178.286 162.309 153.435 137.583 153.435 107.192L122.57 107.192C122.57 154.519 161.265 193.021 208.829 193.021L208.829 162.309Z" fill="#FED730"/>
<path d="M208.829 52.0791C178.286 52.0791 153.435 76.8052 153.435 107.196L122.57 107.196C122.57 59.8695 161.265 21.3681 208.829 21.3681L208.829 52.0791Z" fill="white"/>
<path d="M264.219 107.196C264.219 76.8052 239.369 52.0791 208.825 52.083L208.825 21.3719C256.39 21.372 295.085 59.8734 295.085 107.2L264.215 107.2L264.219 107.196Z" fill="#BF3DC2"/>
<path d="M34.5756 53.0006C25.9759 53.0006 19.0001 59.9376 19.0001 68.4983C19.0001 77.059 25.9719 83.9961 34.5756 83.9961C43.1793 83.9961 50.1512 77.059 50.1512 68.4983C50.1512 59.9376 43.1793 53.0006 34.5756 53.0006Z" fill="#19D89F"/>
</g>
<mask id="mask2_90_1499" style="mask-type:alpha" maskUnits="userSpaceOnUse" x="1153" y="-13" width="205" height="165">
<rect x="1358" y="-13" width="165" height="205" transform="rotate(90 1358 -13)" fill="#D9D9D9"/>
</mask>
<g mask="url(#mask2_90_1499)">
<path d="M1167.94 30.9994C1159.69 30.9994 1153 37.6751 1153 45.9133C1153 54.1514 1159.69 60.8271 1167.94 60.8272C1176.2 60.8272 1182.89 54.1514 1182.89 45.9133C1182.89 37.6751 1176.2 30.9994 1167.94 30.9994Z" fill="#FED730"/>
<path d="M1235.76 123.761C1206.46 123.761 1182.62 99.9668 1182.62 70.7207L1153 70.7207C1153 116.264 1190.12 153.315 1235.76 153.315L1235.76 123.761Z" fill="#BF3DC2"/>
<path d="M1288.91 70.7205C1288.91 99.9667 1265.06 123.761 1235.76 123.757L1235.76 153.312C1281.39 153.312 1318.52 116.261 1318.52 70.7167L1288.91 70.7167L1288.91 70.7205Z" fill="#5959EB"/>
<path d="M1371.64 17.6839C1342.34 17.6839 1318.5 41.4785 1318.5 70.7246L1288.89 70.7246C1288.89 25.1808 1326.01 -11.8702 1371.65 -11.8702L1371.65 17.6839L1371.64 17.6839Z" fill="white"/>
<path d="M1371.64 153.319C1342.34 153.319 1318.5 177.113 1318.5 206.359L1288.88 206.359C1288.88 160.816 1326.01 123.765 1371.64 123.765L1371.64 153.319Z" fill="#5959EB"/>
<path d="M1235.76 153.315C1264.66 153.315 1288.25 176.455 1288.89 205.143C1289.14 188.104 1294.58 172.3 1303.7 159.238C1298.07 151.174 1291.03 144.153 1282.95 138.534C1269.56 147.844 1253.29 153.311 1235.76 153.311M1318.5 206.352L1318.52 206.352C1318.52 205.945 1318.52 205.538 1318.51 205.131C1318.5 205.534 1318.5 205.945 1318.5 206.352Z" fill="white"/>
<path opacity="0.6" d="M1235.76 138.538L1235.76 153.315C1253.29 153.315 1269.55 147.849 1282.95 138.538C1269.55 129.228 1253.28 123.761 1235.76 123.761L1235.76 138.538L1235.76 138.538Z" fill="white"/>
</g>
</g>
</svg>
