<svg width="1356" height="146" viewBox="0 0 1356 146" fill="none" xmlns="http://www.w3.org/2000/svg">
<rect width="1356" height="146" rx="12" fill="#6BB545"/>
<path opacity="0.1" d="M33.0439 90.757V78.7128C33.0439 78.1605 32.5962 77.7128 32.0439 77.7128H21.1638C20.3111 77.7128 19.8496 78.7115 20.4022 79.3609L24.2062 83.8313C24.5145 84.1936 24.5249 84.7229 24.2311 85.097L20.2705 90.1392C19.7551 90.7954 20.2225 91.757 21.0569 91.757H32.0439C32.5962 91.757 33.0439 91.3092 33.0439 90.757Z" fill="white"/>
<path opacity="0.1" d="M51.1006 90.757V78.7128C51.1006 78.1605 50.6529 77.7128 50.1006 77.7128H39.2204C38.3678 77.7128 37.9063 78.7115 38.4589 79.3609L42.2629 83.8313C42.5712 84.1936 42.5816 84.7229 42.2877 85.097L38.3271 90.1392C37.8117 90.7954 38.2792 91.757 39.1135 91.757H50.1006C50.6529 91.757 51.1006 91.3092 51.1006 90.757Z" fill="white"/>
<path opacity="0.1" d="M69.1577 90.757V78.7128C69.1577 78.1605 68.71 77.7128 68.1577 77.7128H57.2776C56.4249 77.7128 55.9634 78.7115 56.516 79.3609L60.32 83.8313C60.6283 84.1936 60.6387 84.7229 60.3448 85.097L56.3843 90.1392C55.8689 90.7954 56.3363 91.757 57.1707 91.757H68.1577C68.71 91.757 69.1577 91.3092 69.1577 90.757Z" fill="white"/>
<path opacity="0.1" d="M33.0439 113.561V101.517C33.0439 100.964 32.5962 100.517 32.0439 100.517H21.1638C20.3111 100.517 19.8496 101.515 20.4022 102.165L24.2062 106.635C24.5145 106.997 24.5249 107.527 24.2311 107.901L20.2705 112.943C19.7551 113.599 20.2225 114.561 21.0569 114.561H32.0439C32.5962 114.561 33.0439 114.113 33.0439 113.561Z" fill="white"/>
<path opacity="0.1" d="M51.1006 113.561V101.517C51.1006 100.964 50.6529 100.517 50.1006 100.517H39.2204C38.3678 100.517 37.9063 101.515 38.4589 102.165L42.2629 106.635C42.5712 106.997 42.5816 107.527 42.2877 107.901L38.3271 112.943C37.8117 113.599 38.2792 114.561 39.1135 114.561H50.1006C50.6529 114.561 51.1006 114.113 51.1006 113.561Z" fill="white"/>
<path opacity="0.1" d="M69.1577 113.561V101.517C69.1577 100.964 68.71 100.517 68.1577 100.517H57.2776C56.4249 100.517 55.9634 101.515 56.516 102.165L60.32 106.635C60.6283 106.997 60.6387 107.527 60.3448 107.901L56.3843 112.943C55.8689 113.599 56.3363 114.561 57.1707 114.561H68.1577C68.71 114.561 69.1577 114.113 69.1577 113.561Z" fill="white"/>
<path opacity="0.1" d="M33.0439 136.364V124.32C33.0439 123.768 32.5962 123.32 32.0439 123.32H21.1638C20.3111 123.32 19.8496 124.319 20.4022 124.968L24.2062 129.439C24.5145 129.801 24.5249 130.33 24.2311 130.705L20.2705 135.747C19.7551 136.403 20.2225 137.364 21.0569 137.364H32.0439C32.5962 137.364 33.0439 136.917 33.0439 136.364Z" fill="white"/>
<path opacity="0.1" d="M51.1006 136.364V124.32C51.1006 123.768 50.6529 123.32 50.1006 123.32H39.2204C38.3678 123.32 37.9063 124.319 38.4589 124.968L42.2629 129.439C42.5712 129.801 42.5816 130.33 42.2877 130.705L38.3271 135.747C37.8117 136.403 38.2792 137.364 39.1135 137.364H50.1006C50.6529 137.364 51.1006 136.917 51.1006 136.364Z" fill="white"/>
<path opacity="0.1" d="M69.1577 136.364V124.32C69.1577 123.768 68.71 123.32 68.1577 123.32H57.2776C56.4249 123.32 55.9634 124.319 56.516 124.968L60.32 129.439C60.6283 129.801 60.6387 130.33 60.3448 130.705L56.3843 135.747C55.8689 136.403 56.3363 137.364 57.1707 137.364H68.1577C68.71 137.364 69.1577 136.917 69.1577 136.364Z" fill="white"/>
<path opacity="0.1" d="M33.0439 68.186V56.1419C33.0439 55.5896 32.5962 55.1419 32.0439 55.1419H21.1638C20.3111 55.1419 19.8496 56.1406 20.4022 56.79L24.2062 61.2603C24.5145 61.6227 24.5249 62.152 24.2311 62.5261L20.2705 67.5683C19.7551 68.2245 20.2225 69.186 21.0569 69.186H32.0439C32.5962 69.186 33.0439 68.7383 33.0439 68.186Z" fill="white"/>
<path opacity="0.1" d="M51.1006 68.186V56.1418C51.1006 55.5896 50.6529 55.1418 50.1006 55.1418H39.2204C38.3678 55.1418 37.9063 56.1405 38.4589 56.7899L42.2629 61.2603C42.5712 61.6226 42.5816 62.1519 42.2877 62.5261L38.3271 67.5683C37.8117 68.2244 38.2792 69.186 39.1135 69.186H50.1006C50.6529 69.186 51.1006 68.7383 51.1006 68.186Z" fill="white"/>
<path opacity="0.1" d="M69.1577 68.186V56.1418C69.1577 55.5896 68.71 55.1418 68.1577 55.1418H57.2776C56.4249 55.1418 55.9634 56.1405 56.516 56.7899L60.32 61.2603C60.6283 61.6226 60.6387 62.1519 60.3448 62.5261L56.3843 67.5683C55.8689 68.2244 56.3363 69.186 57.1707 69.186H68.1577C68.71 69.186 69.1577 68.7383 69.1577 68.186Z" fill="white"/>
<path opacity="0.1" d="M33.0439 45.6151V33.5709C33.0439 33.0186 32.5962 32.5709 32.0439 32.5709H21.1638C20.3111 32.5709 19.8496 33.5696 20.4022 34.219L24.2062 38.6894C24.5145 39.0517 24.5249 39.581 24.2311 39.9551L20.2705 44.9973C19.7551 45.6535 20.2225 46.6151 21.0569 46.6151H32.0439C32.5962 46.6151 33.0439 46.1673 33.0439 45.6151Z" fill="white"/>
<path opacity="0.1" d="M51.1006 45.6151V33.5709C51.1006 33.0186 50.6529 32.5709 50.1006 32.5709H39.2204C38.3678 32.5709 37.9063 33.5696 38.4589 34.219L42.2629 38.6894C42.5712 39.0517 42.5816 39.581 42.2877 39.9551L38.3271 44.9973C37.8117 45.6535 38.2792 46.6151 39.1135 46.6151H50.1006C50.6529 46.6151 51.1006 46.1673 51.1006 45.6151Z" fill="white"/>
<path opacity="0.1" d="M69.1577 45.6151V33.5709C69.1577 33.0186 68.71 32.5709 68.1577 32.5709H57.2776C56.4249 32.5709 55.9634 33.5696 56.516 34.219L60.32 38.6894C60.6283 39.0517 60.6387 39.581 60.3448 39.9551L56.3843 44.9973C55.8689 45.6535 56.3363 46.6151 57.1707 46.6151H68.1577C68.71 46.6151 69.1577 46.1673 69.1577 45.6151Z" fill="white"/>
<path opacity="0.1" d="M33.0439 23.0441V11C33.0439 10.4477 32.5962 10 32.0439 10H21.1638C20.3111 10 19.8496 10.9987 20.4022 11.6481L24.2062 16.1184C24.5145 16.4808 24.5249 17.0101 24.2311 17.3842L20.2705 22.4264C19.7551 23.0826 20.2225 24.0441 21.0569 24.0441H32.0439C32.5962 24.0441 33.0439 23.5964 33.0439 23.0441Z" fill="white"/>
<path opacity="0.1" d="M51.1006 23.0441V11C51.1006 10.4477 50.6529 10 50.1006 10H39.2204C38.3678 10 37.9063 10.9987 38.4589 11.6481L42.2629 16.1184C42.5712 16.4808 42.5816 17.0101 42.2877 17.3842L38.3271 22.4264C37.8117 23.0826 38.2792 24.0441 39.1135 24.0441H50.1006C50.6529 24.0441 51.1006 23.5964 51.1006 23.0441Z" fill="white"/>
<path opacity="0.1" d="M69.1577 23.0441V11C69.1577 10.4477 68.71 10 68.1577 10H57.2776C56.4249 10 55.9634 10.9987 56.516 11.6481L60.32 16.1184C60.6283 16.4808 60.6387 17.0101 60.3448 17.3842L56.3843 22.4264C55.8689 23.0826 56.3363 24.0441 57.1707 24.0441H68.1577C68.71 24.0441 69.1577 23.5964 69.1577 23.0441Z" fill="white"/>
<path opacity="0.1" d="M89.9819 90.757V78.7128C89.9819 78.1605 89.5342 77.7128 88.9819 77.7128H78.1018C77.2491 77.7128 76.7876 78.7115 77.3402 79.3609L81.1442 83.8313C81.4525 84.1936 81.4629 84.7229 81.169 85.097L77.2085 90.1392C76.6931 90.7954 77.1605 91.757 77.9949 91.757H88.9819C89.5342 91.757 89.9819 91.3092 89.9819 90.757Z" fill="white"/>
<path opacity="0.04" d="M108.039 90.757V78.7128C108.039 78.1605 107.591 77.7128 107.039 77.7128H96.1589C95.3063 77.7128 94.8448 78.7115 95.3973 79.3609L99.2014 83.8313C99.5097 84.1936 99.52 84.7229 99.2262 85.097L95.2656 90.1392C94.7502 90.7954 95.2177 91.757 96.052 91.757H107.039C107.591 91.757 108.039 91.3092 108.039 90.757Z" fill="white"/>
<path opacity="0.04" d="M126.096 90.757V78.7128C126.096 78.1605 125.648 77.7128 125.096 77.7128H114.216C113.363 77.7128 112.901 78.7115 113.454 79.3609L117.258 83.8313C117.566 84.1936 117.577 84.7229 117.283 85.097L113.322 90.1392C112.807 90.7954 113.274 91.757 114.109 91.757H125.096C125.648 91.757 126.096 91.3092 126.096 90.757Z" fill="white"/>
<path opacity="0.02" d="M144 90.757V78.7128C144 78.1605 143.552 77.7128 143 77.7128H132.12C131.267 77.7128 130.806 78.7115 131.358 79.3609L135.162 83.8313C135.471 84.1936 135.481 84.7229 135.187 85.097L131.227 90.1392C130.711 90.7954 131.179 91.757 132.013 91.757H143C143.552 91.757 144 91.3092 144 90.757Z" fill="white"/>
<path opacity="0.1" d="M89.9819 113.561V101.517C89.9819 100.964 89.5342 100.517 88.9819 100.517H78.1018C77.2491 100.517 76.7876 101.515 77.3402 102.165L81.1442 106.635C81.4525 106.997 81.4629 107.527 81.169 107.901L77.2085 112.943C76.6931 113.599 77.1605 114.561 77.9949 114.561H88.9819C89.5342 114.561 89.9819 114.113 89.9819 113.561Z" fill="white"/>
<path opacity="0.05" d="M108.039 113.561V101.517C108.039 100.964 107.591 100.517 107.039 100.517H96.1589C95.3063 100.517 94.8448 101.515 95.3973 102.165L99.2014 106.635C99.5097 106.997 99.52 107.527 99.2262 107.901L95.2656 112.943C94.7502 113.599 95.2177 114.561 96.052 114.561H107.039C107.591 114.561 108.039 114.113 108.039 113.561Z" fill="white"/>
<path opacity="0.04" d="M126.096 113.561V101.517C126.096 100.964 125.648 100.517 125.096 100.517H114.216C113.363 100.517 112.901 101.515 113.454 102.165L117.258 106.635C117.566 106.997 117.577 107.527 117.283 107.901L113.322 112.943C112.807 113.599 113.274 114.561 114.109 114.561H125.096C125.648 114.561 126.096 114.113 126.096 113.561Z" fill="white"/>
<path opacity="0.02" d="M144 113.561V101.517C144 100.964 143.552 100.517 143 100.517H132.12C131.267 100.517 130.806 101.515 131.358 102.165L135.162 106.635C135.471 106.997 135.481 107.527 135.187 107.901L131.227 112.943C130.711 113.599 131.179 114.561 132.013 114.561H143C143.552 114.561 144 114.113 144 113.561Z" fill="white"/>
<path opacity="0.1" d="M89.9819 136.365V124.32C89.9819 123.768 89.5342 123.32 88.9819 123.32H78.1018C77.2491 123.32 76.7876 124.319 77.3402 124.968L81.1442 129.439C81.4525 129.801 81.4629 130.33 81.169 130.705L77.2085 135.747C76.6931 136.403 77.1605 137.365 77.9949 137.365H88.9819C89.5342 137.365 89.9819 136.917 89.9819 136.365Z" fill="white"/>
<path opacity="0.05" d="M108.039 136.365V124.32C108.039 123.768 107.591 123.32 107.039 123.32H96.1589C95.3063 123.32 94.8448 124.319 95.3973 124.968L99.2014 129.439C99.5097 129.801 99.52 130.33 99.2262 130.705L95.2656 135.747C94.7502 136.403 95.2177 137.365 96.052 137.365H107.039C107.591 137.365 108.039 136.917 108.039 136.365Z" fill="white"/>
<path opacity="0.04" d="M126.096 136.365V124.32C126.096 123.768 125.648 123.32 125.096 123.32H114.216C113.363 123.32 112.901 124.319 113.454 124.968L117.258 129.439C117.566 129.801 117.577 130.33 117.283 130.705L113.322 135.747C112.807 136.403 113.274 137.365 114.109 137.365H125.096C125.648 137.365 126.096 136.917 126.096 136.365Z" fill="white"/>
<path opacity="0.02" d="M144 136.365V124.32C144 123.768 143.552 123.32 143 123.32H132.12C131.267 123.32 130.806 124.319 131.358 124.968L135.162 129.439C135.471 129.801 135.481 130.33 135.187 130.705L131.227 135.747C130.711 136.403 131.179 137.365 132.013 137.365H143C143.552 137.365 144 136.917 144 136.365Z" fill="white"/>
<path opacity="0.08" d="M89.9819 68.186V56.1419C89.9819 55.5896 89.5342 55.1419 88.9819 55.1419H78.1018C77.2491 55.1419 76.7876 56.1406 77.3402 56.79L81.1442 61.2603C81.4525 61.6227 81.4629 62.152 81.169 62.5261L77.2085 67.5683C76.6931 68.2245 77.1605 69.186 77.9949 69.186H88.9819C89.5342 69.186 89.9819 68.7383 89.9819 68.186Z" fill="white"/>
<path opacity="0.05" d="M108.039 68.186V56.1419C108.039 55.5896 107.591 55.1419 107.039 55.1419H96.1589C95.3063 55.1419 94.8448 56.1406 95.3973 56.79L99.2014 61.2603C99.5097 61.6227 99.52 62.152 99.2262 62.5261L95.2656 67.5683C94.7502 68.2245 95.2177 69.186 96.052 69.186H107.039C107.591 69.186 108.039 68.7383 108.039 68.186Z" fill="white"/>
<path opacity="0.04" d="M126.096 68.186V56.1419C126.096 55.5896 125.648 55.1419 125.096 55.1419H114.216C113.363 55.1419 112.901 56.1406 113.454 56.79L117.258 61.2603C117.566 61.6227 117.577 62.152 117.283 62.5261L113.322 67.5683C112.807 68.2245 113.274 69.186 114.109 69.186H125.096C125.648 69.186 126.096 68.7383 126.096 68.186Z" fill="white"/>
<path opacity="0.02" d="M144 68.186V56.1419C144 55.5896 143.552 55.1419 143 55.1419H132.12C131.267 55.1419 130.806 56.1406 131.358 56.79L135.162 61.2603C135.471 61.6227 135.481 62.152 135.187 62.5261L131.227 67.5683C130.711 68.2245 131.179 69.186 132.013 69.186H143C143.552 69.186 144 68.7383 144 68.186Z" fill="white"/>
<path opacity="0.1" d="M89.9819 45.6151V33.571C89.9819 33.0187 89.5342 32.571 88.9819 32.571H78.1018C77.2491 32.571 76.7876 33.5697 77.3402 34.219L81.1442 38.6894C81.4525 39.0517 81.4629 39.5811 81.169 39.9552L77.2085 44.9974C76.6931 45.6536 77.1605 46.6151 77.9949 46.6151H88.9819C89.5342 46.6151 89.9819 46.1674 89.9819 45.6151Z" fill="white"/>
<path opacity="0.06" d="M108.039 45.6151V33.571C108.039 33.0187 107.591 32.571 107.039 32.571H96.1589C95.3063 32.571 94.8448 33.5697 95.3973 34.219L99.2014 38.6894C99.5097 39.0517 99.52 39.5811 99.2262 39.9552L95.2656 44.9974C94.7502 45.6536 95.2177 46.6151 96.052 46.6151H107.039C107.591 46.6151 108.039 46.1674 108.039 45.6151Z" fill="white"/>
<path opacity="0.04" d="M126.096 45.6151V33.571C126.096 33.0187 125.648 32.571 125.096 32.571H114.216C113.363 32.571 112.901 33.5697 113.454 34.219L117.258 38.6894C117.566 39.0517 117.577 39.5811 117.283 39.9552L113.322 44.9974C112.807 45.6536 113.274 46.6151 114.109 46.6151H125.096C125.648 46.6151 126.096 46.1674 126.096 45.6151Z" fill="white"/>
<path opacity="0.03" d="M144 45.6151V33.571C144 33.0187 143.552 32.571 143 32.571H132.12C131.267 32.571 130.806 33.5697 131.358 34.219L135.162 38.6894C135.471 39.0517 135.481 39.5811 135.187 39.9552L131.227 44.9974C130.711 45.6536 131.179 46.6151 132.013 46.6151H143C143.552 46.6151 144 46.1674 144 45.6151Z" fill="white"/>
<path opacity="0.1" d="M89.9819 23.0441V11C89.9819 10.4477 89.5342 10 88.9819 10H78.1018C77.2491 10 76.7876 10.9987 77.3402 11.6481L81.1442 16.1184C81.4525 16.4808 81.4629 17.0101 81.169 17.3842L77.2085 22.4264C76.6931 23.0826 77.1605 24.0441 77.9949 24.0441H88.9819C89.5342 24.0441 89.9819 23.5964 89.9819 23.0441Z" fill="white"/>
<path opacity="0.06" d="M108.039 23.0441V11C108.039 10.4477 107.591 10 107.039 10H96.1589C95.3063 10 94.8448 10.9987 95.3973 11.6481L99.2014 16.1184C99.5097 16.4808 99.52 17.0101 99.2262 17.3842L95.2656 22.4264C94.7502 23.0826 95.2177 24.0441 96.052 24.0441H107.039C107.591 24.0441 108.039 23.5964 108.039 23.0441Z" fill="white"/>
<path opacity="0.04" d="M126.096 23.0441V11C126.096 10.4477 125.648 10 125.096 10H114.216C113.363 10 112.901 10.9987 113.454 11.6481L117.258 16.1184C117.566 16.4808 117.577 17.0101 117.283 17.3842L113.322 22.4264C112.807 23.0826 113.274 24.0441 114.109 24.0441H125.096C125.648 24.0441 126.096 23.5964 126.096 23.0441Z" fill="white"/>
<path opacity="0.03" d="M144 23.0441V11C144 10.4477 143.552 10 143 10H132.12C131.267 10 130.806 10.9987 131.358 11.6481L135.162 16.1184C135.471 16.4808 135.481 17.0101 135.187 17.3842L131.227 22.4264C130.711 23.0826 131.179 24.0441 132.013 24.0441H143C143.552 24.0441 144 23.5964 144 23.0441Z" fill="white"/>
<path opacity="0.1" d="M1325.96 90.757V78.7128C1325.96 78.1605 1326.4 77.7128 1326.96 77.7128H1337.84C1338.69 77.7128 1339.15 78.7115 1338.6 79.3609L1334.79 83.8313C1334.49 84.1936 1334.48 84.7229 1334.77 85.097L1338.73 90.1392C1339.24 90.7954 1338.78 91.757 1337.94 91.757H1326.96C1326.4 91.757 1325.96 91.3092 1325.96 90.757Z" fill="white"/>
<path opacity="0.1" d="M1307.9 90.757V78.7128C1307.9 78.1605 1308.35 77.7128 1308.9 77.7128H1319.78C1320.63 77.7128 1321.09 78.7115 1320.54 79.3609L1316.74 83.8313C1316.43 84.1936 1316.42 84.7229 1316.71 85.097L1320.67 90.1392C1321.19 90.7954 1320.72 91.757 1319.89 91.757H1308.9C1308.35 91.757 1307.9 91.3092 1307.9 90.757Z" fill="white"/>
<path opacity="0.1" d="M1289.84 90.757V78.7128C1289.84 78.1605 1290.29 77.7128 1290.84 77.7128H1301.72C1302.58 77.7128 1303.04 78.7115 1302.48 79.3609L1298.68 83.8313C1298.37 84.1936 1298.36 84.7229 1298.66 85.097L1302.62 90.1392C1303.13 90.7954 1302.66 91.757 1301.83 91.757H1290.84C1290.29 91.757 1289.84 91.3092 1289.84 90.757Z" fill="white"/>
<path opacity="0.1" d="M1325.96 113.561V101.517C1325.96 100.964 1326.4 100.517 1326.96 100.517H1337.84C1338.69 100.517 1339.15 101.515 1338.6 102.165L1334.79 106.635C1334.49 106.997 1334.48 107.527 1334.77 107.901L1338.73 112.943C1339.24 113.599 1338.78 114.561 1337.94 114.561H1326.96C1326.4 114.561 1325.96 114.113 1325.96 113.561Z" fill="white"/>
<path opacity="0.1" d="M1307.9 113.561V101.517C1307.9 100.964 1308.35 100.517 1308.9 100.517H1319.78C1320.63 100.517 1321.09 101.515 1320.54 102.165L1316.74 106.635C1316.43 106.997 1316.42 107.527 1316.71 107.901L1320.67 112.943C1321.19 113.599 1320.72 114.561 1319.89 114.561H1308.9C1308.35 114.561 1307.9 114.113 1307.9 113.561Z" fill="white"/>
<path opacity="0.1" d="M1289.84 113.561V101.517C1289.84 100.964 1290.29 100.517 1290.84 100.517H1301.72C1302.58 100.517 1303.04 101.515 1302.48 102.165L1298.68 106.635C1298.37 106.997 1298.36 107.527 1298.66 107.901L1302.62 112.943C1303.13 113.599 1302.66 114.561 1301.83 114.561H1290.84C1290.29 114.561 1289.84 114.113 1289.84 113.561Z" fill="white"/>
<path opacity="0.1" d="M1325.96 136.364V124.32C1325.96 123.768 1326.4 123.32 1326.96 123.32H1337.84C1338.69 123.32 1339.15 124.319 1338.6 124.968L1334.79 129.439C1334.49 129.801 1334.48 130.33 1334.77 130.705L1338.73 135.747C1339.24 136.403 1338.78 137.364 1337.94 137.364H1326.96C1326.4 137.364 1325.96 136.917 1325.96 136.364Z" fill="white"/>
<path opacity="0.1" d="M1307.9 136.364V124.32C1307.9 123.768 1308.35 123.32 1308.9 123.32H1319.78C1320.63 123.32 1321.09 124.319 1320.54 124.968L1316.74 129.439C1316.43 129.801 1316.42 130.33 1316.71 130.705L1320.67 135.747C1321.19 136.403 1320.72 137.364 1319.89 137.364H1308.9C1308.35 137.364 1307.9 136.917 1307.9 136.364Z" fill="white"/>
<path opacity="0.1" d="M1289.84 136.364V124.32C1289.84 123.768 1290.29 123.32 1290.84 123.32H1301.72C1302.58 123.32 1303.04 124.319 1302.48 124.968L1298.68 129.439C1298.37 129.801 1298.36 130.33 1298.66 130.705L1302.62 135.747C1303.13 136.403 1302.66 137.364 1301.83 137.364H1290.84C1290.29 137.364 1289.84 136.917 1289.84 136.364Z" fill="white"/>
<path opacity="0.1" d="M1325.96 68.186V56.1419C1325.96 55.5896 1326.4 55.1419 1326.96 55.1419H1337.84C1338.69 55.1419 1339.15 56.1406 1338.6 56.79L1334.79 61.2603C1334.49 61.6227 1334.48 62.152 1334.77 62.5261L1338.73 67.5683C1339.24 68.2245 1338.78 69.186 1337.94 69.186H1326.96C1326.4 69.186 1325.96 68.7383 1325.96 68.186Z" fill="white"/>
<path opacity="0.1" d="M1307.9 68.186V56.1418C1307.9 55.5896 1308.35 55.1418 1308.9 55.1418H1319.78C1320.63 55.1418 1321.09 56.1405 1320.54 56.7899L1316.74 61.2603C1316.43 61.6226 1316.42 62.1519 1316.71 62.5261L1320.67 67.5683C1321.19 68.2244 1320.72 69.186 1319.89 69.186H1308.9C1308.35 69.186 1307.9 68.7383 1307.9 68.186Z" fill="white"/>
<path opacity="0.1" d="M1289.84 68.186V56.1418C1289.84 55.5896 1290.29 55.1418 1290.84 55.1418H1301.72C1302.58 55.1418 1303.04 56.1405 1302.48 56.7899L1298.68 61.2603C1298.37 61.6226 1298.36 62.1519 1298.66 62.5261L1302.62 67.5683C1303.13 68.2244 1302.66 69.186 1301.83 69.186H1290.84C1290.29 69.186 1289.84 68.7383 1289.84 68.186Z" fill="white"/>
<path opacity="0.1" d="M1325.96 45.6151V33.5709C1325.96 33.0186 1326.4 32.5709 1326.96 32.5709H1337.84C1338.69 32.5709 1339.15 33.5696 1338.6 34.219L1334.79 38.6894C1334.49 39.0517 1334.48 39.581 1334.77 39.9551L1338.73 44.9973C1339.24 45.6535 1338.78 46.6151 1337.94 46.6151H1326.96C1326.4 46.6151 1325.96 46.1673 1325.96 45.6151Z" fill="white"/>
<path opacity="0.1" d="M1307.9 45.6151V33.5709C1307.9 33.0186 1308.35 32.5709 1308.9 32.5709H1319.78C1320.63 32.5709 1321.09 33.5696 1320.54 34.219L1316.74 38.6894C1316.43 39.0517 1316.42 39.581 1316.71 39.9551L1320.67 44.9973C1321.19 45.6535 1320.72 46.6151 1319.89 46.6151H1308.9C1308.35 46.6151 1307.9 46.1673 1307.9 45.6151Z" fill="white"/>
<path opacity="0.1" d="M1289.84 45.6151V33.5709C1289.84 33.0186 1290.29 32.5709 1290.84 32.5709H1301.72C1302.58 32.5709 1303.04 33.5696 1302.48 34.219L1298.68 38.6894C1298.37 39.0517 1298.36 39.581 1298.66 39.9551L1302.62 44.9973C1303.13 45.6535 1302.66 46.6151 1301.83 46.6151H1290.84C1290.29 46.6151 1289.84 46.1673 1289.84 45.6151Z" fill="white"/>
<path opacity="0.1" d="M1325.96 23.0441V11C1325.96 10.4477 1326.4 10 1326.96 10H1337.84C1338.69 10 1339.15 10.9987 1338.6 11.6481L1334.79 16.1184C1334.49 16.4808 1334.48 17.0101 1334.77 17.3842L1338.73 22.4264C1339.24 23.0826 1338.78 24.0441 1337.94 24.0441H1326.96C1326.4 24.0441 1325.96 23.5964 1325.96 23.0441Z" fill="white"/>
<path opacity="0.1" d="M1307.9 23.0441V11C1307.9 10.4477 1308.35 10 1308.9 10H1319.78C1320.63 10 1321.09 10.9987 1320.54 11.6481L1316.74 16.1184C1316.43 16.4808 1316.42 17.0101 1316.71 17.3842L1320.67 22.4264C1321.19 23.0826 1320.72 24.0441 1319.89 24.0441H1308.9C1308.35 24.0441 1307.9 23.5964 1307.9 23.0441Z" fill="white"/>
<path opacity="0.1" d="M1289.84 23.0441V11C1289.84 10.4477 1290.29 10 1290.84 10H1301.72C1302.58 10 1303.04 10.9987 1302.48 11.6481L1298.68 16.1184C1298.37 16.4808 1298.36 17.0101 1298.66 17.3842L1302.62 22.4264C1303.13 23.0826 1302.66 24.0441 1301.83 24.0441H1290.84C1290.29 24.0441 1289.84 23.5964 1289.84 23.0441Z" fill="white"/>
<path opacity="0.1" d="M1269.02 90.757V78.7128C1269.02 78.1605 1269.47 77.7128 1270.02 77.7128H1280.9C1281.75 77.7128 1282.21 78.7115 1281.66 79.3609L1277.86 83.8313C1277.55 84.1936 1277.54 84.7229 1277.83 85.097L1281.79 90.1392C1282.31 90.7954 1281.84 91.757 1281.01 91.757H1270.02C1269.47 91.757 1269.02 91.3092 1269.02 90.757Z" fill="white"/>
<path opacity="0.04" d="M1250.96 90.757V78.7128C1250.96 78.1605 1251.41 77.7128 1251.96 77.7128H1262.84C1263.69 77.7128 1264.16 78.7115 1263.6 79.3609L1259.8 83.8313C1259.49 84.1936 1259.48 84.7229 1259.77 85.097L1263.73 90.1392C1264.25 90.7954 1263.78 91.757 1262.95 91.757H1251.96C1251.41 91.757 1250.96 91.3092 1250.96 90.757Z" fill="white"/>
<path opacity="0.04" d="M1232.9 90.757V78.7128C1232.9 78.1605 1233.35 77.7128 1233.9 77.7128H1244.78C1245.64 77.7128 1246.1 78.7115 1245.55 79.3609L1241.74 83.8313C1241.43 84.1936 1241.42 84.7229 1241.72 85.097L1245.68 90.1392C1246.19 90.7954 1245.73 91.757 1244.89 91.757H1233.9C1233.35 91.757 1232.9 91.3092 1232.9 90.757Z" fill="white"/>
<path opacity="0.02" d="M1215 90.757V78.7128C1215 78.1605 1215.45 77.7128 1216 77.7128H1226.88C1227.73 77.7128 1228.19 78.7115 1227.64 79.3609L1223.84 83.8313C1223.53 84.1936 1223.52 84.7229 1223.81 85.097L1227.77 90.1392C1228.29 90.7954 1227.82 91.757 1226.99 91.757H1216C1215.45 91.757 1215 91.3092 1215 90.757Z" fill="white"/>
<path opacity="0.1" d="M1269.02 113.561V101.517C1269.02 100.964 1269.47 100.517 1270.02 100.517H1280.9C1281.75 100.517 1282.21 101.515 1281.66 102.165L1277.86 106.635C1277.55 106.997 1277.54 107.527 1277.83 107.901L1281.79 112.943C1282.31 113.599 1281.84 114.561 1281.01 114.561H1270.02C1269.47 114.561 1269.02 114.113 1269.02 113.561Z" fill="white"/>
<path opacity="0.05" d="M1250.96 113.561V101.517C1250.96 100.964 1251.41 100.517 1251.96 100.517H1262.84C1263.69 100.517 1264.16 101.515 1263.6 102.165L1259.8 106.635C1259.49 106.997 1259.48 107.527 1259.77 107.901L1263.73 112.943C1264.25 113.599 1263.78 114.561 1262.95 114.561H1251.96C1251.41 114.561 1250.96 114.113 1250.96 113.561Z" fill="white"/>
<path opacity="0.04" d="M1232.9 113.561V101.517C1232.9 100.964 1233.35 100.517 1233.9 100.517H1244.78C1245.64 100.517 1246.1 101.515 1245.55 102.165L1241.74 106.635C1241.43 106.997 1241.42 107.527 1241.72 107.901L1245.68 112.943C1246.19 113.599 1245.73 114.561 1244.89 114.561H1233.9C1233.35 114.561 1232.9 114.113 1232.9 113.561Z" fill="white"/>
<path opacity="0.02" d="M1215 113.561V101.517C1215 100.964 1215.45 100.517 1216 100.517H1226.88C1227.73 100.517 1228.19 101.515 1227.64 102.165L1223.84 106.635C1223.53 106.997 1223.52 107.527 1223.81 107.901L1227.77 112.943C1228.29 113.599 1227.82 114.561 1226.99 114.561H1216C1215.45 114.561 1215 114.113 1215 113.561Z" fill="white"/>
<path opacity="0.1" d="M1269.02 136.365V124.32C1269.02 123.768 1269.47 123.32 1270.02 123.32H1280.9C1281.75 123.32 1282.21 124.319 1281.66 124.968L1277.86 129.439C1277.55 129.801 1277.54 130.33 1277.83 130.705L1281.79 135.747C1282.31 136.403 1281.84 137.365 1281.01 137.365H1270.02C1269.47 137.365 1269.02 136.917 1269.02 136.365Z" fill="white"/>
<path opacity="0.05" d="M1250.96 136.365V124.32C1250.96 123.768 1251.41 123.32 1251.96 123.32H1262.84C1263.69 123.32 1264.16 124.319 1263.6 124.968L1259.8 129.439C1259.49 129.801 1259.48 130.33 1259.77 130.705L1263.73 135.747C1264.25 136.403 1263.78 137.365 1262.95 137.365H1251.96C1251.41 137.365 1250.96 136.917 1250.96 136.365Z" fill="white"/>
<path opacity="0.04" d="M1232.9 136.365V124.32C1232.9 123.768 1233.35 123.32 1233.9 123.32H1244.78C1245.64 123.32 1246.1 124.319 1245.55 124.968L1241.74 129.439C1241.43 129.801 1241.42 130.33 1241.72 130.705L1245.68 135.747C1246.19 136.403 1245.73 137.365 1244.89 137.365H1233.9C1233.35 137.365 1232.9 136.917 1232.9 136.365Z" fill="white"/>
<path opacity="0.02" d="M1215 136.365V124.32C1215 123.768 1215.45 123.32 1216 123.32H1226.88C1227.73 123.32 1228.19 124.319 1227.64 124.968L1223.84 129.439C1223.53 129.801 1223.52 130.33 1223.81 130.705L1227.77 135.747C1228.29 136.403 1227.82 137.365 1226.99 137.365H1216C1215.45 137.365 1215 136.917 1215 136.365Z" fill="white"/>
<path opacity="0.08" d="M1269.02 68.186V56.1419C1269.02 55.5896 1269.47 55.1419 1270.02 55.1419H1280.9C1281.75 55.1419 1282.21 56.1406 1281.66 56.79L1277.86 61.2603C1277.55 61.6227 1277.54 62.152 1277.83 62.5261L1281.79 67.5683C1282.31 68.2245 1281.84 69.186 1281.01 69.186H1270.02C1269.47 69.186 1269.02 68.7383 1269.02 68.186Z" fill="white"/>
<path opacity="0.05" d="M1250.96 68.186V56.1419C1250.96 55.5896 1251.41 55.1419 1251.96 55.1419H1262.84C1263.69 55.1419 1264.16 56.1406 1263.6 56.79L1259.8 61.2603C1259.49 61.6227 1259.48 62.152 1259.77 62.5261L1263.73 67.5683C1264.25 68.2245 1263.78 69.186 1262.95 69.186H1251.96C1251.41 69.186 1250.96 68.7383 1250.96 68.186Z" fill="white"/>
<path opacity="0.04" d="M1232.9 68.186V56.1419C1232.9 55.5896 1233.35 55.1419 1233.9 55.1419H1244.78C1245.64 55.1419 1246.1 56.1406 1245.55 56.79L1241.74 61.2603C1241.43 61.6227 1241.42 62.152 1241.72 62.5261L1245.68 67.5683C1246.19 68.2245 1245.73 69.186 1244.89 69.186H1233.9C1233.35 69.186 1232.9 68.7383 1232.9 68.186Z" fill="white"/>
<path opacity="0.02" d="M1215 68.186V56.1419C1215 55.5896 1215.45 55.1419 1216 55.1419H1226.88C1227.73 55.1419 1228.19 56.1406 1227.64 56.79L1223.84 61.2603C1223.53 61.6227 1223.52 62.152 1223.81 62.5261L1227.77 67.5683C1228.29 68.2245 1227.82 69.186 1226.99 69.186H1216C1215.45 69.186 1215 68.7383 1215 68.186Z" fill="white"/>
<path opacity="0.1" d="M1269.02 45.6151V33.571C1269.02 33.0187 1269.47 32.571 1270.02 32.571H1280.9C1281.75 32.571 1282.21 33.5697 1281.66 34.219L1277.86 38.6894C1277.55 39.0517 1277.54 39.5811 1277.83 39.9552L1281.79 44.9974C1282.31 45.6536 1281.84 46.6151 1281.01 46.6151H1270.02C1269.47 46.6151 1269.02 46.1674 1269.02 45.6151Z" fill="white"/>
<path opacity="0.06" d="M1250.96 45.6151V33.571C1250.96 33.0187 1251.41 32.571 1251.96 32.571H1262.84C1263.69 32.571 1264.16 33.5697 1263.6 34.219L1259.8 38.6894C1259.49 39.0517 1259.48 39.5811 1259.77 39.9552L1263.73 44.9974C1264.25 45.6536 1263.78 46.6151 1262.95 46.6151H1251.96C1251.41 46.6151 1250.96 46.1674 1250.96 45.6151Z" fill="white"/>
<path opacity="0.04" d="M1232.9 45.6151V33.571C1232.9 33.0187 1233.35 32.571 1233.9 32.571H1244.78C1245.64 32.571 1246.1 33.5697 1245.55 34.219L1241.74 38.6894C1241.43 39.0517 1241.42 39.5811 1241.72 39.9552L1245.68 44.9974C1246.19 45.6536 1245.73 46.6151 1244.89 46.6151H1233.9C1233.35 46.6151 1232.9 46.1674 1232.9 45.6151Z" fill="white"/>
<path opacity="0.03" d="M1215 45.6151V33.571C1215 33.0187 1215.45 32.571 1216 32.571H1226.88C1227.73 32.571 1228.19 33.5697 1227.64 34.219L1223.84 38.6894C1223.53 39.0517 1223.52 39.5811 1223.81 39.9552L1227.77 44.9974C1228.29 45.6536 1227.82 46.6151 1226.99 46.6151H1216C1215.45 46.6151 1215 46.1674 1215 45.6151Z" fill="white"/>
<path opacity="0.1" d="M1269.02 23.0441V11C1269.02 10.4477 1269.47 10 1270.02 10H1280.9C1281.75 10 1282.21 10.9987 1281.66 11.6481L1277.86 16.1184C1277.55 16.4808 1277.54 17.0101 1277.83 17.3842L1281.79 22.4264C1282.31 23.0826 1281.84 24.0441 1281.01 24.0441H1270.02C1269.47 24.0441 1269.02 23.5964 1269.02 23.0441Z" fill="white"/>
<path opacity="0.06" d="M1250.96 23.0441V11C1250.96 10.4477 1251.41 10 1251.96 10H1262.84C1263.69 10 1264.16 10.9987 1263.6 11.6481L1259.8 16.1184C1259.49 16.4808 1259.48 17.0101 1259.77 17.3842L1263.73 22.4264C1264.25 23.0826 1263.78 24.0441 1262.95 24.0441H1251.96C1251.41 24.0441 1250.96 23.5964 1250.96 23.0441Z" fill="white"/>
<path opacity="0.04" d="M1232.9 23.0441V11C1232.9 10.4477 1233.35 10 1233.9 10H1244.78C1245.64 10 1246.1 10.9987 1245.55 11.6481L1241.74 16.1184C1241.43 16.4808 1241.42 17.0101 1241.72 17.3842L1245.68 22.4264C1246.19 23.0826 1245.73 24.0441 1244.89 24.0441H1233.9C1233.35 24.0441 1232.9 23.5964 1232.9 23.0441Z" fill="white"/>
<path opacity="0.03" d="M1215 23.0441V11C1215 10.4477 1215.45 10 1216 10H1226.88C1227.73 10 1228.19 10.9987 1227.64 11.6481L1223.84 16.1184C1223.53 16.4808 1223.52 17.0101 1223.81 17.3842L1227.77 22.4264C1228.29 23.0826 1227.82 24.0441 1226.99 24.0441H1216C1215.45 24.0441 1215 23.5964 1215 23.0441Z" fill="white"/>
</svg>
