<svg width="669" height="354" viewBox="0 0 669 354" fill="none" xmlns="http://www.w3.org/2000/svg">
<ellipse opacity="0.2" cx="146" cy="335" rx="81" ry="19" fill="#9FB3C8"/>
<ellipse opacity="0.2" cx="368.5" cy="344.5" rx="46.5" ry="8.5" fill="#9FB3C8"/>
<ellipse opacity="0.2" cx="580.5" cy="332" rx="69.5" ry="13" fill="#9FB3C8"/>
<path d="M642.927 216.363V104.025V103C642.927 98.5817 639.345 95 634.927 95H598.663C596.218 95 593.907 96.1182 592.389 98.0355L541.092 162.856C540.255 163.914 538.939 164.171 537.598 164.024C534.504 163.686 525.283 160.445 524.361 157.473C522.815 152.496 519.476 148.651 513.062 148.651C496.014 148.651 513.062 186.758 513.062 189.766C513.062 192.173 506.711 200.463 503.535 204.307L492.216 222.418C491.421 223.689 491 225.158 491 226.658V280.952C491 283.23 491.975 285.702 494.246 285.884C498.928 286.261 504.18 281.845 503.535 287C502.974 291.489 506.141 297.158 509.297 301.819C511.416 304.949 510.883 309.116 510.234 312.84C509.548 316.784 511.072 321.645 518.577 325.648C533.62 333.67 545.654 320.634 554.177 317.625C562.701 314.617 559.693 325.648 566.713 325.648H634.938C639.357 325.648 642.927 322.066 642.927 317.648V292.532C642.927 288.114 646.508 284.532 650.927 284.532H661C665.418 284.532 669 280.951 669 276.532V232.363C669 227.945 665.418 224.363 661 224.363H650.927C646.508 224.363 642.927 220.782 642.927 216.363Z" fill="white"/>
<path d="M661.972 275.751L660.959 275.581C659.154 273.686 659.435 271.289 659.425 269.002C659.365 259.405 659.425 249.798 659.395 240.191C659.375 233.503 659.214 233.382 652.335 233.342C647.692 233.312 643.039 233.533 638.416 233.202C636.681 233.082 634.194 233.583 634.023 230.584C643.34 231.527 652.656 231.166 661.972 230.775V275.751V275.751Z" fill="#20243A"/>
<path d="M634.013 230.585C635.086 232.5 636.941 231.788 638.496 231.808C644.312 231.888 650.138 232.049 655.945 231.768C659.806 231.577 661.139 232.69 661.059 236.742C660.798 249.688 660.959 262.635 660.959 275.591C653.327 275.651 645.696 275.802 638.064 275.701C635.557 275.671 634.625 276.253 634.675 278.95C634.886 291.215 634.876 303.479 634.936 315.734C636.4 318.361 634.845 319.364 632.619 319.926C630.995 320.337 629.31 320.256 627.645 320.267C618.319 320.287 608.963 319.865 599.667 320.387C590.401 320.908 581.526 318.391 572.41 317.92C569.271 317.759 566.724 316.135 565.2 313.237C564.518 312.084 563.756 311.081 562.211 311C561.068 310.94 559.624 311.071 558.872 310.329C553.647 305.174 548.322 308.574 543.038 309.988C541.634 310.369 542.967 311.291 542.817 311.963C542.917 316.436 539.909 318.532 536.269 318.421C531.896 318.291 527.384 318.191 523.102 316.997C519.993 316.135 518.208 314.25 519.782 310.74C521.928 308.132 525.187 307.671 528.316 306.357C525.518 304.783 522.7 303.55 520.284 301.775C512.913 296.349 510.627 288.497 510.847 279.833C510.937 276.353 509.965 275.34 506.445 275.41C498.041 275.581 498.001 275.4 498.021 267.087C498.041 255.956 498.182 244.815 498.121 233.683C498.111 230.705 498.823 228.298 500.819 225.982C506.455 219.463 511.75 212.845 513.184 203.789C513.866 199.497 515.992 195.336 518.88 191.816C520.314 191.545 520.434 192.578 520.635 193.541C520.173 197.02 517.767 199.808 517.095 203.549C523.222 196.068 529.028 188.647 534.945 181.316C535.807 180.253 537.211 179.07 535.486 177.546C534.995 177.084 534.514 176.613 534.885 175.841C543.278 174.718 546.939 167.808 551.491 162.102C566.734 142.989 581.907 123.815 597.019 104.601C598.704 102.465 600.429 101.462 603.247 101.522C612.242 101.703 621.237 101.703 630.233 101.522C633.191 101.462 634.204 102.104 634.194 105.313C634.043 147.07 634.053 188.817 634.023 230.575L634.013 230.585Z" fill="#101730"/>
<path d="M534.885 175.841L536.168 177.004C536.038 178.498 534.885 179.29 533.832 179.992C529.239 183.061 525.809 187.193 522.731 191.685C522.059 192.668 521.648 194.232 519.853 193.751C519.813 192.959 519.662 192.227 518.87 191.816C520.775 189.158 520.003 187.834 517.596 185.347C512.061 179.631 510.757 172.06 511.67 164.198C511.369 163.185 511.8 162.604 512.803 162.563C513.595 162.533 513.886 163.095 513.856 163.847C513.374 170.044 514.217 176.031 517.235 181.527C519.692 185.999 521.918 186.26 525.408 182.75C528.196 179.952 530.984 177.144 534.875 175.861L534.885 175.841Z" fill="#20253C"/>
<path d="M513.856 163.827C512.903 162.574 512.231 163.045 511.67 164.178C508.05 160.718 507.729 157.981 510.928 156.938C513.174 156.206 515.701 155.985 516.965 158.723C518.389 161.801 515.942 162.764 513.856 163.827V163.827Z" fill="#2B2D42"/>
<path d="M580.834 292.609C566.564 307.541 537.212 308.112 527.043 283.814C530.814 281.036 534.855 283.313 538.595 283.644C549.506 284.626 560.346 286.281 571.287 284.135C572.29 283.934 573.273 284.275 574.266 284.265C579.811 284.566 581.656 286.903 580.834 292.619V292.609Z" fill="#099348"/>
<path d="M554.029 223.866C556.837 219.985 559.634 216.104 562.442 212.223C564.318 212.273 565.12 213.988 566.474 214.841C570.274 217.197 575.188 217.037 577.394 214.409C579.962 211.361 579.651 206.638 576.753 203.047C575.529 201.533 573.413 200.831 572.872 198.725C575.659 194.844 578.447 190.974 581.275 187.032C584.384 189.138 585.968 191.555 585.938 195.095C585.848 206.046 585.918 216.997 585.898 227.957C585.898 229.722 586.36 231.758 583.411 231.748C572.019 231.698 560.627 231.728 548.734 231.728C549.667 229 551 227.396 552.454 225.862C553.608 225.691 555.633 226.213 554.029 223.876V223.866Z" fill="#007ED1"/>
<path d="M569.933 279.743C571.748 280.054 573.323 281.237 576.211 280.585C574.466 281.839 573.704 282.39 572.942 282.942C567.787 285.649 562.061 286.01 556.576 285.559C547.881 284.837 539.167 284.235 530.493 283.273C528.838 283.092 527.153 283.213 526.02 281.688C526.923 280.695 527.835 279.693 528.738 278.7C529.831 277.868 531.054 277.356 532.428 277.366C542.727 277.406 553.036 276.865 563.335 277.697C565.681 277.888 567.908 278.539 569.943 279.753L569.933 279.743Z" fill="#29A7DC"/>
<path d="M572.882 198.725C576.823 200.37 579.46 203.107 580.262 207.43C581.105 211.982 579.27 216.014 575.649 217.398C571.057 219.142 565.521 216.976 562.442 212.223C564.007 210.488 564.819 208.132 566.885 206.798C568.038 207.53 568.931 208.763 570.736 208.884C570.284 207.139 568.118 207.309 567.928 205.735C568.86 202.897 570.916 200.851 572.882 198.735V198.725Z" fill="#F5F1D0"/>
<path d="M519.853 193.751C524.125 187.043 529.119 181.026 536.168 177.014C537.633 176.924 539.949 176.563 538.044 179.03C530.793 188.426 523.332 197.662 515.45 206.658C515.661 201.824 518.027 197.883 519.843 193.751H519.853Z" fill="#007ED1"/>
<path d="M569.933 279.743C556.235 278.108 542.466 279.001 528.738 278.7C528.798 276.213 530.041 275.32 532.538 275.351C542.978 275.451 553.417 275.501 563.856 275.33C567.246 275.28 567.968 278.219 569.933 279.753V279.743Z" fill="#2799CC"/>
<path d="M530.001 302.005C527.705 303.86 524.907 302.918 524.606 300.05C523.974 294.053 521.557 289.269 515.801 286.742C512.883 285.459 512.783 283.152 513.094 280.244L519.873 282.861C524.315 288.678 530.101 293.782 530.011 301.995L530.001 302.005Z" fill="#BB232E"/>
<path d="M526.01 281.678C532.879 282.36 539.758 283.072 546.627 283.714C555.422 284.536 564.197 284.416 572.931 282.932C573.683 283.253 574.436 283.584 575.178 283.904C575.288 284.265 575.168 284.536 574.837 284.717C559.995 288.287 545.264 285.78 530.502 284.025C529.359 283.884 528.196 283.874 527.032 283.804C525.789 283.533 524.184 283.423 526 281.678H526.01Z" fill="#11293A"/>
<path d="M521.187 280.766C519.221 280.124 516.303 280.405 515.501 277.958C514.728 275.581 519.823 270.708 522.581 270.708C525.418 270.708 526.953 272.202 526.953 274.99C526.953 278.62 524.817 280.355 521.187 280.766V280.766Z" fill="#8ABF41"/>
<path d="M565.962 310.75C559.845 311.031 553.688 310.148 547.601 311.623C545.685 312.094 543.619 311.783 541.794 310.75C541.052 309.928 539.729 308.845 542.256 308.995C544.883 309.146 547.159 308.624 548.864 306.468C550.609 304.272 553.688 304.833 554.58 305.967C557.508 309.667 561.209 309.787 565.22 309.707C565.461 309.707 565.701 310.379 565.952 310.74L565.962 310.75Z" fill="#F5F5F6"/>
<path d="M579.901 277.707C577.234 279.161 574.556 279.151 571.799 277.918C569.532 276.905 568.53 275.25 568.71 272.793C568.86 270.808 569.943 269.765 571.869 269.634C574.175 269.474 576.051 269.975 577.154 272.402C577.856 273.947 577.585 276.223 579.891 276.795C580.232 276.995 580.343 277.206 580.232 277.406C580.122 277.607 580.012 277.707 579.891 277.707H579.901Z" fill="#7EB141"/>
<path d="M531.947 314.791C529.741 315.112 527.023 314.19 524.265 313.678C523.413 313.518 522.44 313.117 522.49 312.274C522.53 311.612 523.242 310.68 523.884 310.429C526.562 309.356 529.209 307.461 532.137 310.178C533.03 311.011 534.524 311.211 535.757 311.672C536.981 312.124 539.408 310.82 539.227 313.117C539.067 315.182 536.71 314.731 535.106 314.801C534.273 314.841 533.441 314.801 531.947 314.801V314.791Z" fill="#6F4929"/>
<path d="M530.001 302.006C530.122 298.556 527.855 296.149 526.09 293.612C523.704 290.192 521.728 286.572 519.873 282.872C522.37 282.28 523.864 283.243 524.977 285.579C526.04 287.816 527.264 290.182 529.029 291.837C532.559 295.116 531.937 298.415 530.001 302.016V302.006Z" fill="#AB212E"/>
<path d="M584.494 313.768C579.249 313.768 575.168 313.788 571.086 313.768C569.371 313.758 568.89 312.655 568.85 311.121C568.79 308.774 570.244 309.597 571.517 309.677C575.699 309.948 580.222 308.744 584.494 313.768Z" fill="#6F4928"/>
<path d="M532.057 304.232C533.531 302.647 531.836 298.837 535.085 298.636C536.66 298.536 539.678 300.15 538.154 302.948C537.071 304.934 540.069 308.985 535.396 308.935C532.799 308.905 531.906 306.869 532.067 304.232H532.057Z" fill="#6C4729"/>
<path d="M574.847 284.717C574.957 284.446 575.078 284.175 575.188 283.905C575.84 283.834 576.502 283.714 577.154 283.714C579.43 283.694 582.579 280.766 583.612 283.102C584.996 286.211 584.715 290.303 580.844 292.609C579.159 289.741 580.292 284.737 574.847 284.717V284.717Z" fill="#088243"/>
<path d="M577.835 302.316C576.893 304.663 577.123 307.712 573.603 307.662C571.828 307.641 570.886 306.619 571.116 304.793C571.457 302.076 573.433 300.201 575.599 299.408C577.354 298.756 577.234 301.243 577.845 302.316H577.835Z" fill="#684629"/>
<path d="M584.043 293.431C584.043 296.129 584.103 297.713 584.033 299.298C583.953 301.133 584.725 303.419 581.787 303.911C580.994 304.041 579.921 304.432 579.961 303.229C580.022 301.123 577.605 298.927 580.162 296.901C581.165 296.099 582.097 295.196 584.053 293.441L584.043 293.431Z" fill="#BA232E"/>
<path d="M558.251 306.177C561.029 304.242 564.218 304.733 566.935 303.65C567.617 303.379 568.61 302.988 568.861 304.262C569.051 305.204 568.49 306.006 567.758 306.277C564.699 307.43 561.58 308.483 558.251 306.167V306.177Z" fill="#A8212E"/>
<path d="M542.797 306.799C541.664 306.588 539.949 307.009 540.09 305.004C540.19 303.6 541.042 302.346 542.647 302.948C544.031 303.469 546.498 303.138 546.427 305.174C546.377 306.809 544.322 306.789 542.797 306.799Z" fill="#A0202E"/>
<path d="M567.928 205.725C568.229 205.815 568.69 205.815 568.8 206.015C569.703 207.53 572.811 205.113 572.751 208.232C572.731 209.575 571.929 210.468 570.675 210.548C568.138 210.699 567.446 208.763 566.885 206.798L567.928 205.725Z" fill="#353B48"/>
<path d="M554.029 223.866C555.252 224.949 558.632 224.889 557.498 226.965C556.536 228.72 554.179 226.433 552.464 225.862C552.986 225.2 553.507 224.538 554.029 223.876V223.866Z" fill="#C0CDC1"/>
<path d="M579.49 307.13C581.075 307.2 582.408 304.783 584.023 306.729C584.334 307.1 584.274 308.363 583.973 308.544C582.057 309.727 580.934 307.942 579.49 307.13Z" fill="#D9D7DB"/>
<path d="M581.897 275.751C584.314 275.411 584.204 277.085 584.003 278.579C583.823 279.933 582.699 279.813 581.687 279.642C581.586 279.622 581.426 279.382 581.456 279.281C581.536 279.011 581.686 278.76 581.817 278.499C582.589 277.607 581.165 276.644 581.897 275.741V275.751Z" fill="#2494C4"/>
<path d="M581.897 275.751C582.037 276.674 584.013 277.657 581.816 278.509C581.185 278.238 580.543 277.978 579.911 277.707C580.041 277.396 580.041 277.095 579.911 276.794C580.573 276.443 581.235 276.102 581.897 275.751V275.751Z" fill="#1B3445"/>
<path d="M514.177 275.952C513.705 276.303 513.254 276.895 512.693 277.005C512.081 277.135 512.021 276.403 512.312 276.082C512.713 275.631 513.314 275.36 513.826 275.019L514.177 275.952Z" fill="#3F2430"/>
<path d="M514.828 160.197C514.477 161.119 513.595 161.571 512.652 161.621C511.76 161.681 511.108 160.889 511.118 160.117C511.138 158.883 512.241 158.723 513.214 158.743C514.056 158.753 514.768 159.094 514.828 160.197V160.197Z" fill="#D3D1D6"/>
<path d="M476.5 128.168C474.5 149.368 454 163.335 444 167.668C417.834 154.501 362.1 124.868 348.5 111.668C334.9 98.4679 334.5 77.8346 336 69.1679C329.5 69.5013 316.6 65.6679 317 47.6679C317.4 29.6679 329.834 35.1679 336 40.1679C336.4 53.3679 341.834 50.6679 344.5 47.6679C348.9 29.6679 372.667 24.1679 384 23.6679C377.6 18.0679 377.334 7.00127 378 2.16793C394.8 -7.43207 401 17.1679 402 30.6679C414.8 31.8679 426 46.1679 430 53.1679C477.2 47.5679 505.667 75.1679 514 89.6679C509.2 109.668 487 123.668 476.5 128.168Z" fill="white"/>
<path d="M493.012 98.3718C493.492 98.4218 493.982 98.4718 494.462 98.5218C491.952 101.802 489.572 105.212 485.342 106.552C485.032 106.182 484.922 105.762 484.992 105.282C487.212 102.462 489.082 99.2218 493.012 98.3718V98.3718Z" fill="#241E35"/>
<path d="M485.352 105.642C485.402 105.942 485.392 106.252 485.342 106.552C484.032 108.512 482.502 110.222 480.282 111.182C479.592 111.042 479.072 110.712 478.982 109.942C479.492 107.772 481.612 107.142 482.992 105.802C483.752 105.402 484.512 104.762 485.362 105.642H485.352Z" fill="#463243"/>
<path d="M472.473 115.432L470.223 115.292C471.243 112.192 473.453 111.472 476.393 112.202C476.763 112.672 476.763 113.142 476.393 113.612C475.323 114.732 474.093 115.482 472.483 115.432H472.473Z" fill="#402B3D"/>
<path d="M476.392 113.602C476.322 113.092 476.262 112.582 476.192 112.072C476.452 110.292 477.302 109.472 479.142 110.272C479.522 110.572 479.912 110.882 480.292 111.182L476.402 113.602H476.392Z" fill="#363346"/>
<path d="M484.133 86.5319C484.563 86.5019 484.983 86.4819 485.413 86.4519C487.193 90.9019 490.133 94.6219 493.023 98.3719C490.473 100.792 487.913 103.212 485.363 105.642C484.683 105.912 484.003 106.182 483.333 106.452C483.573 104.092 482.983 101.842 482.343 99.6119C484.273 95.4319 483.543 90.8919 484.143 86.5419L484.133 86.5319Z" fill="#BB232E"/>
<path d="M484.133 86.5318C485.843 91.2118 486.493 95.7318 482.333 99.6018C476.093 101.272 470.793 100.142 468.393 96.6218C465.823 92.8518 466.583 87.4418 470.363 82.6418C475.543 81.8418 480.363 82.3318 484.133 86.5218V86.5318Z" fill="#111730"/>
<path d="M390.387 22.4792C390.365 22.4221 390.338 22.3526 390.305 22.2683C390.3 22.2556 390.295 22.242 390.289 22.2275C390.176 21.9374 389.925 21.297 389.841 20.6016C389.737 19.7447 389.844 18.4449 390.896 17.3685C391.791 16.4522 392.954 16.1527 393.806 16.0304L394.018 16H394.232C395.312 16 396.404 16.3138 397.315 17.0699C398.189 17.7945 398.649 18.7208 398.892 19.522C399.348 21.0257 399.227 22.7195 399.038 24.0239C398.678 26.5011 397.802 29.1406 397.445 30.217C397.441 30.2285 397.438 30.2398 397.434 30.2509C412.83 35.3403 422.897 46.2079 429.857 59.8847C429.928 59.9449 430.005 60.0088 430.089 60.0782L430.115 60.1001C430.347 60.293 430.636 60.533 430.919 60.7912C431.483 61.3038 432.162 62.0057 432.686 62.9677C433.29 63.8944 433.889 65.0928 434.054 66.5787L434.071 66.7313L434.072 66.8453C434.124 66.9198 434.243 67.0597 434.546 67.3403C434.596 67.3868 434.661 67.4452 434.736 67.5131C435.026 67.7746 435.471 68.1758 435.828 68.564C436.314 69.0922 436.872 69.826 437.215 70.8101C438.58 74.1313 440.266 77.3319 442.072 80.6028C442.488 81.3578 442.914 82.1201 443.342 82.8889C444.761 85.433 446.22 88.0484 447.546 90.7084C448.082 91.7808 448.932 92.4323 450.374 93.1325C450.855 93.3658 451.247 93.5368 451.685 93.7281C452.033 93.8799 452.41 94.0444 452.885 94.263C453.802 94.6861 454.845 95.2147 455.836 95.9475L455.955 96.0354L456.065 96.1345C461.369 100.93 464.728 107.052 463.178 115.041L463.151 115.179L463.112 115.314C463.033 115.583 462.962 115.855 462.877 116.178C462.856 116.262 462.833 116.348 462.809 116.439C462.7 116.854 462.569 117.339 462.407 117.829C462.09 118.789 461.579 120.011 460.591 121.053C458.688 123.062 457.557 125.457 456.665 128.241C456.215 129.644 455.841 131.094 455.443 132.642L455.421 132.728C455.038 134.222 454.63 135.811 454.132 137.379L454.055 137.62L453.939 137.845C453.565 138.571 453.239 139.353 452.855 140.278L452.823 140.354C452.443 141.267 452.002 142.322 451.457 143.339C450.326 145.448 448.637 147.603 445.631 148.836L444.957 149.112L444.231 149.049C442.298 148.879 440.83 147.746 440.076 146.1L439.944 145.812L439.875 145.503C439.346 143.133 440.048 141.221 440.806 139.815C441.112 139.249 441.466 138.697 441.747 138.258C441.792 138.187 441.836 138.119 441.877 138.055C442.205 137.541 442.429 137.167 442.59 136.821C443.775 134.254 444.694 131.82 445.159 129.251L444.601 129.265L444.005 129.013C442.423 128.345 441.2 126.986 440.948 125.046L440.911 124.766L440.928 124.484C440.931 124.432 440.947 123.968 441.029 123.544L441.031 123.532C441.084 123.261 441.349 121.886 442.707 121.118L442.732 121.104L442.758 121.09C443.893 120.478 444.443 119.896 444.73 119.442C445.011 118.999 445.161 118.487 445.185 117.803C445.21 117.078 445.092 116.22 444.852 115.146C444.701 114.467 444.563 113.944 444.415 113.376C444.285 112.881 444.147 112.354 443.983 111.661L443.983 111.659C441.963 103.104 437.91 95.4914 433.64 87.4692C432.892 86.0652 432.138 84.6486 431.387 83.2123C431.312 83.2714 431.233 83.3346 431.15 83.4023C423.549 89.5628 415.726 95.7409 407.034 100.856C396.554 107.023 385.441 111.543 373.772 114.677C373.516 114.746 373.283 114.809 373.07 114.867C373.164 115.042 373.266 115.231 373.377 115.437L373.402 115.484C374.426 117.378 375.471 118.702 376.653 119.587C377.79 120.438 379.223 121.01 381.262 121.125C383.826 121.267 386.539 121.806 388.985 122.292C390.011 122.495 390.99 122.69 391.892 122.842L392.19 122.892L392.472 123.001C393.782 123.506 395.06 124.484 395.709 126.153L395.898 126.64L395.912 127.163C395.977 129.699 394.925 131.537 393.708 132.883C393.491 133.123 393.267 133.35 393.044 133.563C393.44 133.273 393.844 132.972 394.261 132.661L394.274 132.652C396.215 131.207 398.439 129.551 401.029 128.37L401.633 128.095L402.297 128.1C403.66 128.111 404.706 128.617 405.369 128.99C405.582 129.109 405.835 129.264 406.014 129.372C406.077 129.411 406.131 129.443 406.17 129.467C406.381 129.593 406.495 129.653 406.574 129.687L406.595 129.696L406.615 129.705C406.766 129.773 406.938 129.842 407.173 129.934C407.387 130.017 407.678 130.129 407.963 130.251C408.53 130.493 409.318 130.871 410.043 131.515C412.475 133.666 415.181 133.913 418.747 132.838L419.414 132.637L420.101 132.75C420.717 132.852 421.66 133.056 422.549 133.63C423.469 134.225 424.168 135.108 424.525 136.239C425.053 136.177 425.626 136.167 426.233 136.244L426.955 136.336L427.554 136.749C428.628 137.488 429.68 138.418 430.239 139.645C430.929 141.158 430.68 142.682 429.888 143.845C429.249 144.784 428.339 145.378 427.756 145.719C427.224 146.03 426.634 146.312 426.208 146.515C426.138 146.549 426.072 146.58 426.012 146.609C423.172 147.987 420.476 149.3 417.953 150.798C419.156 150.347 420.46 150.005 421.83 149.758L421.831 149.757C423.015 149.544 424.106 149.282 425.286 148.998C425.985 148.83 426.716 148.654 427.515 148.476C429.53 148.029 431.753 147.635 434.117 147.67L434.448 147.675L434.77 147.752C435.639 147.96 436.425 148.338 437.112 148.845L438.143 149.605L438.308 150.875C438.453 151.998 438.313 153.145 437.715 154.182C437.162 155.141 436.385 155.71 435.809 156.052C435.864 156.35 435.897 156.662 435.9 156.986C435.908 157.8 435.729 158.576 435.392 159.292C435.425 159.779 435.52 160.102 435.686 160.412L435.688 160.415C445.017 177.851 447.712 196.647 447.793 215.677C447.884 236.484 445.423 257.141 436.011 276.521L433.313 275.21L436.011 276.521C423.271 302.751 401.606 315.944 373.114 317.953M390.387 22.4792L326.346 310.52C341.322 317.773 357.246 319.073 373.114 317.953M390.387 22.4792C390.169 24.7016 389.5 25.9882 388.716 26.7404C387.883 27.5396 386.478 28.1597 384.025 28.16C366.585 28.1396 349.965 37.2656 344.765 51.9377C344.018 54.0459 343.262 54.6435 342.777 54.8753C342.168 55.167 341.166 55.285 339.185 54.9759L339.183 54.9755C338.279 54.8351 337.514 54.6116 336.58 54.3387C336.052 54.1847 335.471 54.0149 334.78 53.8354C333.92 53.5714 332.043 53.213 330.602 54.7039C329.927 55.4017 329.68 56.213 329.589 56.7934C329.499 57.3724 329.532 57.9172 329.588 58.3457L329.743 59.5463L330.689 60.3026C334.171 63.0885 338.171 63.6153 341.756 63.4774M390.387 22.4792L341.756 63.4774M373.114 317.953L372.903 314.96L373.114 317.953C373.114 317.953 373.114 317.953 373.114 317.953ZM340.183 123.956C315.271 130.75 298.037 146.548 289.12 170.597L289.12 170.598C278.294 199.813 279.179 229.588 286.573 259.021L286.573 259.022C292.231 281.517 304.431 299.913 326.345 310.52L340.973 126.85M340.183 123.956L340.973 126.85M340.183 123.956C340.182 123.956 340.181 123.956 340.18 123.957L340.973 126.85M340.183 123.956C341.183 123.682 341.653 123.418 341.912 123.2C342.122 123.024 342.363 122.738 342.587 122.042M340.973 126.85C343.383 126.19 344.723 125.2 345.443 122.96M342.587 122.042C342.586 122.043 342.586 122.044 342.586 122.045L345.443 122.96M342.587 122.042C344.742 115.315 348.078 109.206 352.201 103.635L352.203 103.634C352.46 103.287 352.57 103.067 352.617 102.948C352.639 102.892 352.646 102.86 352.648 102.848C352.65 102.841 352.65 102.836 352.65 102.833C352.651 102.831 352.651 102.83 352.65 102.829C352.65 102.805 352.641 102.536 352.131 101.661L352.129 101.658C345.397 90.0829 340.829 77.5403 341.756 63.4774M342.587 122.042L345.443 122.96M345.443 122.96L341.756 63.4774M433.883 81.51C434.662 83.0047 435.455 84.4928 436.248 85.9805C440.52 93.998 444.786 102.004 446.903 110.97C447.025 111.488 447.16 112.008 447.295 112.528C448.379 116.715 449.458 120.883 444.183 123.73C443.968 123.851 443.945 124.261 443.927 124.592C443.925 124.615 443.924 124.638 443.923 124.66C444.023 125.43 444.463 125.95 445.173 126.25C445.297 126.247 445.419 126.245 445.539 126.244L445.607 126.37C445.684 126.329 445.759 126.287 445.834 126.245C447.485 126.275 448.603 126.699 448.213 129.18C447.723 132.34 446.633 135.22 445.313 138.08C445.024 138.704 444.644 139.297 444.264 139.892C443.314 141.375 442.36 142.865 442.803 144.85L433.883 81.51ZM433.883 81.51C432.443 78.74 431.083 79.6 429.263 81.07L433.883 81.51ZM332.992 59.563C332.992 59.5628 332.996 59.5639 333.006 59.5669C332.997 59.5647 332.992 59.5632 332.992 59.563ZM445.817 126.245C445.747 126.244 445.676 126.244 445.604 126.244L445.659 126.342C445.714 126.311 445.767 126.278 445.817 126.245ZM410.727 156.328C411.121 155.869 411.651 155.354 412.352 154.758C412.006 155.227 411.702 155.732 411.444 156.274C410.922 157.367 410.635 158.514 410.545 159.695C410.47 159.559 410.402 159.428 410.34 159.302C409.911 158.425 409.895 157.979 409.925 157.745C409.956 157.508 410.087 157.076 410.727 156.328Z" fill="#101730" stroke="white" stroke-width="6"/>
<path d="M394.503 29.56C393.863 31.52 394.243 32.36 396.373 33.06C411.073 37.88 420.703 48.29 427.443 61.76C428.383 62.62 429.503 63.32 430.103 64.5C430.593 65.23 430.973 66.01 431.073 66.91C431.093 69.29 433.773 69.9 434.403 71.86C437.283 78.9 441.483 85.27 444.863 92.05C446.803 95.93 451.063 96.15 454.053 98.36C458.843 102.69 461.523 107.82 460.233 114.47C459.773 116.04 459.503 117.84 458.413 118.99C453.743 123.92 453.183 130.46 451.273 136.47C449.463 139.98 448.783 144.3 444.493 146.06C443.693 145.99 443.133 145.57 442.803 144.85C442.183 142.07 444.303 140.26 445.313 138.08C446.633 135.22 447.723 132.34 448.213 129.18C448.653 126.38 447.173 126.2 445.173 126.25C444.463 125.95 444.023 125.43 443.923 124.66C443.943 124.32 443.953 123.86 444.183 123.73C450.113 120.53 448.013 115.66 446.903 110.97C444.393 100.34 438.863 91.06 433.883 81.51C432.443 78.74 431.083 79.6 429.263 81.07C421.663 87.23 413.993 93.28 405.513 98.27C395.283 104.29 384.423 108.71 372.993 111.78C368.603 112.96 368.663 113.02 370.763 116.91C373.043 121.13 375.953 123.83 381.093 124.12C384.523 124.31 387.953 125.22 391.393 125.8C392.093 126.07 392.633 126.52 392.913 127.24C392.993 130.36 390.463 131.73 388.583 133.46C386.533 135.33 384.103 136.79 382.173 139.2C384.883 141.73 387.383 140.26 389.863 139.08C394.343 136.96 397.753 133.16 402.273 131.1C403.503 131.11 404.343 131.99 405.383 132.44C406.293 132.85 407.323 133.11 408.053 133.76C411.523 136.83 415.433 136.97 419.613 135.71C420.583 135.87 421.433 136.2 421.703 137.28C421.303 139.3 419.273 139.44 417.623 140.41C420.873 141.65 423.113 138.87 425.853 139.22C429.543 141.76 426.693 142.95 424.703 143.91C420.373 146.01 416.073 148.1 412.213 151.03C405.653 156.02 405.323 158.33 410.463 164.8C411.993 166.72 413.533 168.64 416.093 169.32C416.543 168.29 415.763 167.73 415.413 167.07C411.423 159.31 413.723 154.27 422.363 152.71C426.253 152.01 430.043 150.61 434.073 150.67C434.533 150.78 434.953 150.98 435.333 151.26C435.653 153.73 433.193 153.59 432.093 154.71C431.773 154.76 431.413 155 431.503 155.21C431.643 155.51 432.173 155.22 432.443 155.51C433.013 156.52 433.113 157.52 432.383 158.5C432.353 159.66 432.453 160.73 433.043 161.83C442.053 178.67 444.713 196.92 444.793 215.69C444.883 236.27 442.443 256.41 433.313 275.21C421.083 300.39 400.423 313.02 372.903 314.96C357.323 316.06 341.983 314.76 327.653 307.82C306.703 297.68 294.973 280.12 289.483 258.29C282.193 229.27 281.373 200.14 291.933 171.64C300.513 148.5 316.993 133.39 340.973 126.85C343.383 126.19 344.723 125.2 345.443 122.96C347.483 116.59 350.653 110.77 354.613 105.42C356.073 103.45 355.883 102.14 354.723 100.15C348.023 88.63 343.693 76.42 344.813 62.82C344.983 60.77 344.443 60.3 342.393 60.44C338.913 60.67 335.463 60.28 332.563 57.96C332.423 56.88 332.763 56.33 333.953 56.72C335.543 57.13 337.113 57.69 338.723 57.94C342.953 58.6 345.803 57.99 347.593 52.94C352.243 39.82 367.433 31.14 384.023 31.16C389.916 31.16 393.049 28.1533 393.423 22.14C393.173 20.91 391.792 19.35 394.232 19C398.172 19 395.1 27.7269 394.503 29.56Z" fill="#101730"/>
<path d="M432.393 155.272C433.723 154.282 435.053 153.282 436.383 152.292C437.573 151.602 438.743 152.082 439.923 152.332C441.193 152.662 442.403 153.242 443.703 153.442C447.703 154.062 450.402 151.762 450.222 147.652C450.082 144.332 450.023 141.082 451.613 138.032C453.383 131.872 458.703 129.562 463.663 126.852C466.153 120.932 466.403 114.802 465.453 108.552C465.063 105.982 464.103 103.472 464.553 100.792C464.853 99.7219 465.393 98.8219 466.383 98.2419C469.053 99.0019 468.802 101.492 469.372 103.432C470.342 106.772 470.342 110.302 471.282 113.652C471.712 114.222 472.213 114.752 472.483 115.422C470.213 116.662 469.343 118.392 468.983 121.122C467.293 134.142 461.743 145.252 451.863 154.182C448.363 157.352 444.702 158.602 440.712 156.072C436.332 153.292 434.433 154.882 433.383 159.192C433.363 158.152 433.563 157.062 432.633 156.252C432.293 156.102 432.142 155.902 432.192 155.662C432.242 155.402 432.302 155.262 432.402 155.262L432.393 155.272Z" fill="#141931"/>
<path d="M437.402 61.7018C454.522 59.4918 470.592 62.4218 485.402 71.4918C485.152 72.2818 484.652 72.7818 483.822 72.9418C482.272 72.9718 480.922 72.3018 479.642 71.5818C477.102 70.1618 474.772 70.2518 472.182 71.6818C468.242 73.8518 463.972 75.0818 459.372 74.7718C454.212 74.2018 449.732 72.2118 446.052 68.5118C443.932 66.1618 442.022 63.5118 438.422 63.3318C437.752 62.9918 437.232 62.5718 437.412 61.7118L437.402 61.7018Z" fill="#131831"/>
<path d="M484.302 72.3119L485.402 71.4819C492.022 74.4919 496.922 79.5219 501.472 85.0019C502.712 86.4919 502.982 87.7619 501.792 89.3519C499.442 92.4819 497.742 96.1319 494.452 98.5119C494.022 98.8419 493.552 98.9219 493.032 98.7819C488.372 95.7119 485.982 91.1119 484.332 86.0019C482.862 81.4419 482.532 76.8819 484.302 72.3119V72.3119Z" fill="#121831"/>
<path d="M334.953 57.4218C334.493 57.8318 334.033 58.2418 333.563 58.6618C330.463 57.5118 329.243 54.8118 328.163 52.0218C327.413 50.0818 327.243 47.9818 325.453 46.3818C323.913 45.0018 324.353 43.0318 325.723 41.5018C326.883 40.2018 328.373 40.1518 329.753 41.0118C331.433 42.0618 332.763 44.0418 331.643 45.6018C327.683 51.1318 331.773 54.0718 334.933 57.4318L334.953 57.4218Z" fill="#272A3F"/>
<path d="M395.443 19.7218C394.223 20.4718 394.723 21.7818 394.413 22.8318C392.943 19.0118 391.903 14.9218 386.423 14.9018C384.893 14.9018 384.293 13.0118 384.463 11.3518C384.623 9.83175 385.443 8.86175 386.973 8.79175C388.563 8.72175 391.223 8.18175 391.233 10.0818C391.263 14.0818 395.333 15.9918 395.433 19.7218H395.443Z" fill="#2E3044"/>
<path d="M437.402 61.7019L438.542 62.6419C437.192 66.0619 433.682 64.1819 431.482 65.5219C431.022 65.5219 430.562 65.5219 430.102 65.5019C429.552 64.4919 429.002 63.4719 428.442 62.4619C431.422 62.2019 434.412 61.9519 437.392 61.6919L437.402 61.7019Z" fill="#2B1B32"/>
<path d="M345.182 118.802C344.542 116.492 343.032 115.352 344.022 113.842C344.622 112.922 345.452 113.602 346.072 114.152C347.822 115.712 346.212 116.652 345.182 118.802V118.802Z" fill="white"/>
<path d="M460.362 153.262C459.342 152.692 459.012 151.682 459.622 150.862C460.702 149.422 461.502 151.182 462.462 151.372C462.482 152.802 461.982 153.652 460.362 153.262V153.262Z" fill="white"/>
<path d="M460.362 153.262C461.062 152.632 461.762 152.002 462.462 151.372C464.192 151.422 463.802 152.492 463.082 153.132C462.382 153.752 461.362 155.572 460.362 153.272V153.262Z" fill="white"/>
<path d="M379.462 170.342C380.822 171.812 381.222 170.572 381.792 169.562C383.352 166.782 384.972 164.032 386.562 161.262C388.472 161.212 387.942 162.352 387.612 163.392C384.732 171.182 386.092 178.412 387.892 186.582C393.032 209.922 393.032 233.692 386.342 256.942C382.092 271.712 371.612 277.792 358.692 273.952C351.912 271.932 347.922 267.172 345.502 260.802C340.522 247.662 340.212 233.892 340.182 220.132C340.162 208.872 340.362 197.572 343.582 186.622C344.462 183.612 345.452 180.582 346.862 177.802C350.462 170.722 356.042 166.172 364.212 165.332C365.652 167.782 365.352 170.312 364.502 172.832C363.702 175.192 362.872 177.542 362.422 179.992C362.002 182.302 359.602 184.932 362.002 186.912C364.642 189.092 368.012 189.662 371.262 187.572C373.882 185.572 373.262 181.992 375.102 179.622C375.462 177.182 375.892 174.762 375.842 172.282C375.892 171.812 376.052 171.382 376.292 170.982C377.232 170.172 378.232 169.672 379.472 170.342H379.462Z" fill="white"/>
<path d="M403.322 132.252C399.572 135.232 395.992 138.432 391.662 140.632C387.942 142.512 384.292 144.942 381.492 139.822C385.362 136.152 389.442 132.292 393.522 128.422C395.382 124.452 399.282 122.022 401.302 118.172C403.212 116.622 403.522 114.242 404.432 112.182C403.602 113.952 403.162 115.902 401.922 117.482C398.812 120.822 396.972 125.412 392.362 127.292C386.812 127.772 381.662 125.302 376.182 125.112C373.902 125.032 373.572 122.372 372.452 120.832C370.632 118.342 368.992 115.722 366.982 112.722C383.502 109.612 398.112 103.212 411.662 94.3719C418.612 89.8319 425.172 84.7519 431.202 79.0219C432.462 77.8219 433.342 76.3719 434.712 79.1119C440.172 90.0419 446.482 100.552 449.592 112.582C451.022 118.082 451.132 122.482 445.342 125.252C443.512 128.942 438.932 128.922 436.502 131.812C435.872 132.182 435.182 132.422 434.472 132.592C430.552 132.852 427.582 136.392 423.412 135.772C420.592 133.722 420.922 130.252 419.712 127.472C418.472 124.642 417.572 121.662 415.862 119.072C411.972 121.262 410.752 125.682 407.762 128.622C406.382 129.982 405.412 131.762 403.332 132.252H403.322Z" fill="#D6DD28"/>
<path d="M434.643 131.372L436.173 131.152C439.753 129.852 442.823 127.412 446.573 126.482C447.823 125.822 449.073 125.172 450.663 124.332C451.113 132.342 448.143 138.842 444.263 145.082C442.813 149.412 439.243 151.072 435.243 152.182C431.013 152.992 426.743 153.612 422.573 154.652C414.943 156.542 413.273 161.772 418.033 168.002C418.853 169.072 421.243 169.952 419.943 171.462C418.493 173.142 416.553 171.652 415.053 170.642C411.663 168.372 409.253 165.162 407.243 161.722C405.173 158.202 406.763 155.312 409.533 152.982C414.393 148.892 419.783 145.682 425.683 143.292C426.993 142.762 429.663 142.372 426.563 140.392C423.903 141.222 422.493 140.762 423.703 137.622C426.623 134.282 431.503 134.352 434.633 131.372H434.643Z" fill="#099348"/>
<path d="M479.132 110.272C477.792 110.282 476.932 111.092 476.192 112.072C474.202 113.142 472.212 114.212 470.222 115.292C468.412 109.752 469.202 103.622 466.392 98.3019C463.742 96.4719 463.622 93.1819 462.032 90.7119C457.402 83.4819 450.762 78.8219 443.162 75.2919C439.412 72.4519 434.562 71.3219 431.332 67.6719C430.922 66.9519 430.522 66.2319 430.112 65.5119L430.562 65.6119C436.162 63.5819 441.252 65.7219 446.382 67.5419C450.152 70.7919 454.412 73.0019 459.412 73.6619C463.772 76.0319 469.032 77.2619 470.922 82.7519C465.882 95.5019 467.612 98.1119 481.642 99.0319C482.142 99.0619 482.572 99.3319 482.952 99.6719C484.642 101.852 484.832 104.102 483.332 106.452C481.932 107.722 480.542 109.002 479.142 110.272H479.132Z" fill="#AC212E"/>
<path d="M369.912 70.4819C374.532 70.3819 379.472 75.6919 379.472 80.7619C379.472 86.0819 375.322 90.3619 370.132 90.3919C365.102 90.4119 360.812 86.1019 360.632 80.8519C360.452 75.4819 364.822 70.5919 369.912 70.4919V70.4819Z" fill="#F5F1D0"/>
<path d="M395.392 63.7117C395.352 58.3317 398.302 55.2917 403.562 55.2817C409.692 55.2817 414.732 59.6017 414.782 64.9117C414.822 69.5717 410.732 73.4217 405.692 73.4917C399.842 73.5717 395.432 69.3817 395.392 63.7117V63.7117Z" fill="#F5F2D0"/>
<path d="M465.393 100.412C466.803 108.052 468.263 115.682 466.353 123.462C465.923 125.202 465.983 127.092 464.523 128.442C461.833 129.522 460.653 128.222 459.953 125.752C458.923 122.162 459.403 118.672 460.223 115.152C461.103 108.882 458.653 103.882 454.263 99.6219C452.633 97.6219 449.463 95.9319 452.943 92.9219C460.123 93.0419 464.393 95.6019 465.393 100.402V100.412Z" fill="#BD232E"/>
<path d="M376.443 161.202C375.013 162.922 376.583 163.452 377.633 164.192C377.583 165.932 376.173 167.252 376.123 168.992C375.013 170.292 374.263 171.692 374.883 173.472C374.243 175.112 374.063 176.822 374.073 178.562C372.373 182.242 373.123 187.382 367.873 188.952C361.463 188.172 359.573 186.772 362.053 180.552C363.563 176.782 363.683 172.482 366.373 169.142C367.113 166.532 367.843 163.922 368.583 161.312C370.803 157.392 373.343 157.352 376.443 161.182V161.202Z" fill="#F8F7F7"/>
<path d="M416.392 116.402C419.332 122.462 421.512 128.812 423.432 135.252C423.152 137.072 421.302 136.502 420.332 137.272C414.392 141.382 410.472 136.012 405.792 134.202C403.872 132.362 405.812 131.332 406.692 130.152C410.062 125.662 413.562 121.272 416.392 116.402V116.402Z" fill="#BFC931"/>
<path d="M453.483 93.4017C450.353 95.9117 454.593 97.4817 454.273 99.6317C448.263 98.0917 444.473 94.4217 442.143 88.5617C439.963 83.0917 436.133 78.3317 434.433 72.5717C435.503 71.5217 436.533 71.6517 437.533 72.6617C439.153 77.1917 442.983 79.9517 446.133 83.2617C448.703 86.5517 452.003 89.3117 453.473 93.3917L453.483 93.4017Z" fill="#AB212E"/>
<path d="M452.163 138.262C451.173 140.972 451.162 143.782 451.372 146.592C451.922 153.762 448.133 156.532 441.193 153.962C440.573 153.732 439.953 153.502 439.333 153.262C439.613 149.402 442.673 147.992 445.453 146.322C448.403 143.932 449.253 140.182 451.323 137.222C451.763 137.432 452.043 137.782 452.163 138.262V138.262Z" fill="#AA212E"/>
<path d="M452.163 138.262C451.883 137.912 451.603 137.572 451.323 137.222C451.473 128.732 456.633 122.252 460.233 115.152C460.603 118.682 461.133 122.212 461.303 125.762C461.413 128.082 462.803 128.342 464.533 128.442C458.953 129.882 454.733 133.032 452.173 138.262H452.163Z" fill="#AA212E"/>
<path d="M362.312 115.062C361.232 124.292 358.332 126.612 350.132 125.732C348.712 125.582 348.302 125.012 348.662 123.942C349.322 121.952 349.662 119.352 352.082 118.892C355.602 118.222 358.872 116.892 362.312 115.062Z" fill="#BA232E"/>
<path d="M370.583 145.442C371.003 143.032 374.763 146.192 374.693 142.982C376.243 143.292 376.353 144.452 376.143 145.652C375.873 147.222 374.773 148.872 376.903 150.002C378.933 151.082 380.363 150.002 381.753 148.702C382.233 148.252 382.813 147.912 383.513 148.342L384.783 149.422C385.523 150.682 384.613 151.642 384.163 152.682C383.583 153.732 383.163 154.872 382.503 155.882C380.293 158.122 377.713 158.572 374.803 157.492C371.323 156.362 368.873 154.492 369.713 150.312C370.123 148.712 371.453 147.272 370.583 145.442V145.442Z" fill="#1A2236"/>
<path d="M383.513 148.342C382.103 149.622 381.703 151.982 379.323 152.232C376.013 152.582 373.513 149.162 374.883 146.042C375.373 144.922 375.903 143.932 374.693 142.982C376.983 139.432 379.413 140.682 381.543 143.002C382.843 144.422 384.083 146.112 383.513 148.332V148.342Z" fill="#89BD41"/>
<path d="M366.362 169.162C365.352 172.942 364.402 176.732 363.322 180.482C361.412 187.122 361.372 187.112 368.152 187.972C369.042 187.612 370.022 187.652 370.872 187.002C373.292 185.152 373.032 186.822 372.692 188.492C368.992 191.322 365.172 189.962 361.452 188.652C358.932 187.772 359.322 185.672 359.902 183.682C361.292 178.962 362.722 174.262 364.112 169.542C364.522 168.152 365.272 166.752 364.202 165.322C366.602 165.652 364.832 168.322 366.352 169.152L366.362 169.162Z" fill="#2D3143"/>
<path d="M418.093 183.432C417.103 175.622 419.903 171.882 426.413 171.692C424.203 175.802 422.343 179.992 418.093 183.432Z" fill="#0A8E47"/>
<path d="M365.863 114.972C367.583 118.212 372.003 119.922 370.043 123.702C368.993 125.722 364.123 125.332 363.433 124.162C361.673 121.202 364.403 118.362 365.873 114.962L365.863 114.972Z" fill="#B9C030"/>
<path d="M416.393 116.402C415.763 122.162 411.033 125.402 408.203 129.812C407.303 131.212 405.033 131.892 405.793 134.202C404.973 133.552 404.153 132.902 403.323 132.252C408.093 127.312 411.033 120.862 416.393 116.402V116.402Z" fill="#263032"/>
<path d="M420.333 137.272C421.363 136.602 422.402 135.922 423.432 135.252C427.442 134.742 430.483 131.462 434.643 131.372C435.463 133.212 433.962 133.492 432.842 133.992C430.072 135.232 427.283 136.442 424.503 137.662C423.823 137.942 423.343 138.982 422.393 138.182L420.333 137.272V137.272Z" fill="#203133"/>
<path d="M437.422 73.5019C436.662 72.4219 435.542 72.5019 434.422 72.5719C434.172 70.4419 429.362 71.1819 431.322 67.6619C435.512 69.7219 439.842 71.5319 443.622 74.3519C443.462 75.1119 442.982 75.5819 442.282 75.8719C440.222 75.9819 438.662 75.0619 437.412 73.5019H437.422Z" fill="#2E1930"/>
<path d="M422.393 138.182C423.093 138.002 423.803 137.832 424.503 137.652C423.563 139.792 424.473 140.542 426.573 140.392C423.423 141.162 420.543 145.642 416.833 141.162C418.373 139.282 420.772 139.442 422.402 138.172L422.393 138.182Z" fill="#0A8042"/>
<path d="M445.452 146.332C443.412 148.642 441.372 150.962 439.332 153.272C438.352 152.942 437.372 152.612 436.382 152.282C436.002 152.252 435.612 152.222 435.232 152.182C438.242 149.812 441.242 147.442 444.252 145.082C444.652 145.502 445.052 145.912 445.452 146.332Z" fill="#242232"/>
<path d="M446.572 126.482C443.462 128.822 440.592 131.712 436.172 131.152C438.282 127.722 442.382 127.372 445.332 125.252C445.742 125.662 446.162 126.072 446.572 126.482V126.482Z" fill="#1F3134"/>
<path d="M401.583 118.662C399.583 122.482 397.153 125.952 393.513 128.422L392.353 127.292C395.333 123.872 398.313 120.452 401.293 117.032C401.823 117.502 401.913 118.052 401.583 118.672V118.662Z" fill="#252E32"/>
<path d="M376.442 161.202C373.812 160.702 371.132 157.092 368.582 161.332C368.202 159.322 368.562 157.612 370.492 156.512C371.972 155.332 373.192 156.852 374.552 156.902C375.672 157.412 376.982 157.512 377.942 158.402C378.442 159.442 378.282 160.382 377.512 161.232L376.442 161.192V161.202Z" fill="#313847"/>
<path d="M374.083 157.402C372.883 157.102 371.683 156.802 370.483 156.502C367.903 154.392 367.683 151.962 369.533 149.272C369.863 148.912 370.193 148.932 370.513 149.272C369.593 153.442 371.823 155.452 375.463 156.492C375.503 157.562 374.953 157.722 374.083 157.392V157.402Z" fill="#D7D8D7"/>
<path d="M375.482 169.162C374.772 166.892 376.402 165.632 377.622 164.192C378.452 164.352 379.652 164.932 378.872 165.632C376.612 167.682 379.142 168.812 379.462 170.342C378.542 170.692 377.612 171.042 376.692 171.392C374.952 171.372 374.832 170.482 375.492 169.162H375.482Z" fill="#111931"/>
<path d="M374.083 157.402C374.543 157.102 375.002 156.802 375.462 156.502C378.072 157.542 380.373 156.842 382.523 155.262C382.863 154.912 383.203 154.922 383.543 155.262C383.293 157.032 382.223 158.032 380.543 158.462C379.523 159.122 378.503 159.112 377.503 158.422C376.363 158.072 375.013 158.432 374.083 157.402V157.402Z" fill="#D4D5D4"/>
<path d="M396.712 89.6218C395.402 90.5118 393.952 91.2618 392.822 92.3418C392.092 93.0418 391.522 94.0918 390.602 93.1118C389.812 92.2618 390.752 91.3318 391.362 90.6518C392.452 89.4418 393.652 88.3318 395.472 88.4618C395.912 88.8218 396.562 88.9518 396.712 89.6218Z" fill="#D4D2B9"/>
<path d="M377.502 158.432L380.542 158.472C380.692 160.662 379.632 161.542 377.512 161.232C377.512 160.292 377.512 159.362 377.512 158.422L377.502 158.432Z" fill="#343A4D"/>
<path d="M370.513 149.282L370.023 149.302L369.533 149.272C369.083 147.772 370.153 146.692 370.583 145.442C371.203 145.512 372.353 145.582 372.353 145.662C372.383 147.162 371.723 148.372 370.523 149.282H370.513Z" fill="#AFB1B3"/>
<path d="M383.592 152.322C383.982 151.352 384.383 150.392 384.773 149.422C388.313 150.862 384.813 152.072 384.643 153.402C383.973 153.352 383.863 152.762 383.583 152.322H383.592Z" fill="#80878B"/>
<path d="M396.713 89.6219C396.303 89.2319 395.883 88.8519 395.473 88.4619C395.913 88.2619 396.343 87.9119 396.793 87.8919C397.753 87.8419 399.403 86.7219 399.453 88.5619C399.493 90.1119 397.703 89.3819 396.713 89.6319V89.6219Z" fill="#F6F2D1"/>
<path d="M387.613 163.402C387.263 162.692 386.912 161.982 386.562 161.272C386.682 160.232 387.603 158.872 388.163 159.462C389.223 160.562 388.623 162.182 387.603 163.402H387.613Z" fill="#C4C2C9"/>
<path d="M432.393 155.272C432.473 155.602 432.553 155.932 432.633 156.252C432.283 156.702 431.973 157.482 431.573 157.522C430.923 157.602 430.483 156.932 430.573 156.242C430.713 155.162 431.643 155.342 432.393 155.262V155.272Z" fill="#9C202E"/>
<path d="M383.592 152.322C383.942 152.682 384.292 153.042 384.652 153.402C384.502 154.152 384.572 155.032 383.542 155.272C383.202 155.272 382.862 155.272 382.522 155.272C382.882 154.292 383.232 153.312 383.592 152.332V152.322Z" fill="#C0C2C0"/>
<path d="M442.393 75.4318C442.803 75.0718 443.223 74.7118 443.633 74.3418C454.723 79.0018 463.073 86.2618 466.393 98.2918C466.323 99.1218 466.213 99.9218 465.403 100.402C463.353 94.8018 457.313 95.9718 453.483 93.3918C450.133 90.5518 447.543 87.1318 445.593 83.2118C443.753 80.9418 443.263 78.1118 442.393 75.4318V75.4318Z" fill="#131730"/>
<path d="M470.352 82.6519C467.852 78.2519 462.362 77.4919 459.402 73.6519C464.322 73.6619 469.002 72.6519 472.982 69.6619C475.372 67.8619 477.282 68.9019 479.382 69.9719C481.002 70.7919 482.662 71.5319 484.302 72.3019C485.182 76.9719 483.932 81.8119 485.402 86.4419C485.002 86.8119 484.522 87.0019 483.982 87.0019C479.912 84.0719 474.872 84.1519 470.352 82.6419V82.6519Z" fill="#BD232E"/>
<path d="M446.373 67.5418C442.653 68.6718 439.433 66.1018 435.803 66.0618C434.113 66.0418 432.333 65.5418 430.553 65.6018C432.323 62.2018 436.203 64.5018 438.543 62.6418C442.833 61.5918 444.443 64.8218 446.373 67.5418Z" fill="#B4222E"/>
<path d="M389.663 11.5418C388.873 12.0618 388.413 12.5018 387.863 12.6518C387.643 12.7118 387.013 12.1418 386.993 11.8218C386.913 10.9918 387.622 10.7718 388.282 10.8118C388.642 10.8318 388.973 11.1618 389.663 11.5418Z" fill="#ECECEE"/>
<path d="M372.692 188.492C372.332 187.962 372.812 186.112 371.212 187.512C370.262 188.342 369.222 188.162 368.152 187.972C370.832 186.812 371.842 184.222 371.532 181.902C371.212 179.542 373.022 179.352 373.792 178.152C375.762 177.112 376.322 178.222 376.492 179.922C373.942 182.212 375.002 186.092 372.702 188.492H372.692Z" fill="#464858"/>
<path d="M376.492 179.922C375.892 178.882 375.042 178.212 373.792 178.152C370.942 176.062 373.142 174.692 374.502 173.202C374.452 171.462 375.322 171.532 376.492 172.182C378.822 174.762 375.722 177.332 376.492 179.912V179.922Z" fill="#393F4E"/>
<path d="M376.492 172.192C375.832 172.532 375.162 172.872 374.502 173.212C370.952 170.932 373.432 170.102 375.482 169.162C375.742 169.982 375.562 171.042 376.682 171.392C376.792 171.702 376.722 171.972 376.492 172.202V172.192Z" fill="#6A6F77"/>
<path d="M401.582 118.662C401.482 118.112 401.392 117.572 401.292 117.022C402.362 114.182 403.442 111.342 404.512 108.502L405.942 109.042C405.522 112.602 405.062 116.142 401.572 118.662H401.582Z" fill="#2C3632"/>
<path d="M372.773 81.0918C372.733 82.9618 371.913 83.7218 370.313 83.6618C368.683 83.6018 367.333 83.1718 367.583 81.1618C367.753 79.8118 368.513 78.8418 369.793 80.0418C370.703 80.9018 373.023 78.3018 372.773 81.0918V81.0918Z" fill="#22293A"/>
<path d="M404.863 63.3917C405.733 63.8117 407.963 62.1117 407.673 64.9217C407.513 66.5017 406.503 67.4217 405.033 67.2417C403.433 67.0417 402.233 65.9717 402.473 64.1717C402.653 62.8617 403.343 61.9317 404.863 63.3917Z" fill="#3C414C"/>
<path d="M442.392 75.432C445.512 77.182 445.132 80.372 445.592 83.212C441.972 80.732 437.892 78.632 437.422 73.502C439.082 74.142 440.732 74.792 442.392 75.432V75.432Z" fill="#B8222E"/>
<path d="M103.854 184L171.398 98.6559C172.726 96.9783 174.748 96 176.887 96H216.5C220.366 96 223.5 99.134 223.5 103V218.5C223.5 222.366 226.634 225.5 230.5 225.5H245C248.866 225.5 252 228.634 252 232.5V279.5C252 283.366 248.866 286.5 245 286.5H230.5C226.634 286.5 223.5 289.634 223.5 293.5V325C223.5 328.866 220.366 332 216.5 332H164.105C160.239 332 157.105 328.866 157.105 325V294.508C157.105 291.466 154.64 289 151.598 289C147.26 289 143.127 294.592 141.508 298.616C138.006 307.323 128.32 316.5 130.105 316.5C132.605 316.5 144.605 327.5 135.605 332C129.374 335.116 119.198 333.962 113.115 332.623C111.483 332.263 110.13 331.207 109.073 329.913C107.895 328.469 106.782 327.476 105.752 326.827C102.353 324.684 104.461 330.642 101.509 333.369C100.009 334.755 96.2421 335.83 88.6053 336C66.1053 336.5 64.6053 332 63.1053 327.5C61.9718 324.099 50.9341 319.242 44.6576 316.888C43.9601 316.626 43.2987 316.266 42.7259 315.79C25.0362 301.084 24.9884 274.99 27.7155 260.491C28.1831 258.006 27.4282 255.448 25.8726 253.454C18.1052 243.497 16.8173 229.173 17.4165 219.504C17.6314 216.035 15.6036 212.737 12.6774 210.863C4.02348 205.318 -3.36728 193.846 1.60532 181C7.60532 165.5 24.1053 178.5 22.1053 181C21.2266 182.098 22.4191 184.655 24.1422 187.261C26.3327 190.574 30.9588 190.663 34.1273 188.268C34.8906 187.691 35.6513 187.145 36.4072 186.63C42.1541 182.713 50.5026 163.747 54.5304 158.078C55.2448 157.072 56.0978 156.045 57.1053 155C66.6279 145.125 75.5545 162.511 80.0463 175.902C81.0485 178.89 83.8509 180.965 86.805 182.061C88.9748 182.867 91.1336 184.048 93.0741 185.309C96.5218 187.548 101.302 187.224 103.854 184Z" fill="white"/>
<path d="M77.5652 331.93C77.5652 332.26 77.5752 332.58 77.5852 332.91H70.5952C70.5952 332.59 70.5952 332.28 70.5752 331.96C72.8952 330.12 75.2252 330.13 77.5552 331.93H77.5652Z" fill="#F1F0F1"/>
<path d="M68.5952 323.93C69.4752 322.31 70.8652 320.52 67.5252 320.1C46.5352 317.5 38.2752 301.59 34.7052 282.36C33.2452 274.47 33.1152 266.54 34.5852 258.62C35.0852 255.93 34.5452 253.57 33.1752 251.07C25.8652 237.79 21.7252 223.89 26.3152 208.69C27.0052 206.41 25.8452 206.2 24.3552 205.8C18.0152 204.1 14.0252 200.09 12.4952 193.7C12.0852 192 11.1052 190.89 9.6052 189.9C7.8052 188.71 6.9052 186.82 8.4252 184.79C9.6852 183.1 11.6252 182.91 13.3752 183.78C15.3252 184.76 16.1452 186.32 15.2352 188.72C12.7552 195.27 19.7752 204.39 26.8752 204.13C28.1552 204.08 28.4852 203.3 29.0852 202.51C38.5852 189.97 51.2052 184.59 66.8352 186.19C67.9152 186.3 68.7952 186.08 69.5852 185.38C71.4352 184.66 70.7252 187.21 71.9852 187.24C82.0052 189.17 90.1152 194.6 96.8852 201.84C100.085 205.27 101.435 204.77 104.075 201.41C128.495 170.35 153.115 139.44 177.555 108.39C179.815 105.52 182.055 104.17 185.835 104.31C193.975 104.63 202.135 104.65 210.275 104.31C214.365 104.14 215.515 105.16 215.495 109.4C215.315 149.09 215.455 188.79 215.285 228.48C215.265 232.6 216.215 233.92 220.435 233.67C226.895 233.29 233.405 233.67 239.885 233.52C242.535 233.46 243.265 234.39 243.245 236.96C243.135 249.58 243.115 262.2 243.255 274.83C243.285 277.53 242.415 278.18 239.865 278.13C232.885 277.97 225.895 278.12 218.915 278.05C217.025 278.03 215.825 278.17 215.875 280.64C216.095 292.75 216.155 304.86 216.265 316.97C218.075 320.03 216.705 321.54 213.685 322.24C213.045 322.39 212.375 322.46 211.725 322.47C197.855 322.61 183.985 322.69 170.125 322.43C165.265 322.34 164.575 321.28 165.335 316.94C165.385 304.87 165.375 292.81 165.545 280.74C165.585 278.2 164.595 277.76 162.355 277.78C153.085 277.88 143.805 277.97 134.545 277.72C132.195 277.66 131.495 278.95 130.475 280.33C126.995 282.68 125.965 286.87 123.385 289.98C119.305 294.9 115.315 300.35 113.855 306.96C113.335 307.49 112.685 307.65 111.965 307.58C110.055 306.33 108.115 308.11 106.195 307.52C105.525 307.18 105.145 306.66 105.095 305.9C105.305 304.43 106.445 303.64 107.495 302.87C113.245 298.64 116.545 292.89 118.185 285.98C117.165 287.1 116.205 286.88 115.245 286.04C114.325 283.31 117.455 282.67 117.965 280.69C116.515 278.59 114.355 279.53 112.545 279.52C99.8752 279.4 87.1852 280.14 74.5452 278.52C71.6252 278.03 67.8852 280.01 66.2152 275.78C67.5652 273.06 70.1652 273.92 72.3252 273.8C80.7252 273.31 88.6252 271.19 95.9352 266.99C97.0852 266.33 98.2552 265.69 99.1252 264.66C99.5452 264.16 99.9952 263.6 99.6452 262.89C99.2952 262.2 98.6152 262.18 97.9452 262.23C96.9452 262.3 95.9852 262.58 95.0652 262.93C86.6252 266.17 77.8752 265.78 69.1052 265.11C67.9852 264.68 66.8452 263.92 67.4152 262.69C68.3752 260.59 70.5652 260.91 72.4352 260.76C72.9052 260.75 73.3952 260.8 73.8752 260.79C75.4352 260.76 77.2152 261.25 78.0652 259.3C78.3952 258.54 78.5552 257.53 77.8852 257.04C76.1452 255.76 75.0252 257.75 73.5752 258.11C64.3752 262.2 54.7052 264.88 45.0552 267.61C40.8952 268.05 40.5152 263.79 38.1352 262.07C38.0552 261.97 37.9052 261.86 37.8652 261.71C37.7452 261.26 37.4352 261.08 37.3552 261.33C35.5352 267.29 39.7252 270.34 43.3852 273.64C44.3152 274.81 44.7952 276.16 45.0852 277.59C46.3552 281.18 45.6752 284.71 43.5452 287.55C40.8052 291.21 41.2252 294.56 43.1352 298.2C44.2152 300.26 45.3052 302.3 46.4652 304.32C49.4652 309.56 54.0352 308.6 58.6552 307.7C63.0352 307.5 67.3252 307.82 70.3552 311.53C72.3452 313.96 72.8752 310.94 74.1352 310.73C76.3052 311.98 75.7952 314.13 75.9652 316.05C76.1352 317.27 75.4852 318.94 77.0752 319.46C78.3852 319.89 79.0552 318.59 79.4952 317.54C80.1352 316.01 80.7052 314.41 79.0652 313.11C77.8252 312.13 75.8552 312.23 75.1252 310.46C75.0152 309.62 75.2452 308.92 75.9552 308.4C76.5552 308.09 77.2052 307.74 77.8352 307.87C85.6052 309.4 93.2552 307.69 100.935 307.02C101.715 307.19 102.395 307.54 102.835 308.23C102.865 308.38 102.965 308.66 102.925 308.68C97.3352 311.48 96.4252 318.51 91.2552 321.58C89.1852 322.81 91.3852 323.4 91.2752 324.28C91.5152 325.27 91.4452 326.21 90.7852 327.03C90.3352 327.25 89.6652 327.54 89.3852 327.27C84.5152 322.63 78.7452 324.47 72.8252 324.97C74.1852 326.93 76.0952 326.54 77.7752 326.56C82.2252 326.6 86.6652 326.51 91.0752 327.27C92.1652 327.46 92.9952 327.71 92.9952 329.02C90.2952 331.13 72.4152 331.87 69.8352 329.89C67.7752 328.31 66.9852 326.31 68.6352 323.91L68.5952 323.93Z" fill="#101730"/>
<path d="M130.325 324.9C129.295 326.06 129.435 328.14 126.765 327.95C121.975 327.61 117.155 327.86 112.345 327.92C108.885 327.96 107.365 325.82 106.425 322.92C105.705 322.09 105.745 321.09 105.955 320.15C106.955 315.78 105.525 312.18 102.545 309.05L101.285 307.87C101.945 305.65 103.335 304.97 105.485 305.87L106.585 307.01C109.575 308.81 110.245 311.81 110.765 314.91C110.955 316.02 111.175 317.46 112.785 316.93C113.885 316.57 113.605 315.36 113.475 314.37C113.145 311.84 111.175 309.7 111.675 306.97C112.345 306.96 113.005 306.94 113.675 306.93C114.595 306.44 115.595 306.58 116.585 306.57C120.175 306.54 121.615 305.16 120.715 301.29C119.535 296.22 120.765 291.78 125.755 289.1C127.385 288.23 128.015 286.83 128.235 285.09C128.445 283.47 128.545 281.74 130.475 281.04C134.005 286.8 132.315 297.38 126.455 304.43C123.855 307.57 121.805 311.96 116.395 310.52C116.615 314.86 118.365 317.18 122.705 317.99C126.305 318.66 129.495 320.69 130.315 324.88L130.325 324.9Z" fill="#171A32"/>
<path d="M130.485 281.06C129.705 282.2 129.475 283.47 129.685 284.82C130.115 287.6 129.375 289.18 126.325 290.28C121.705 291.94 120.865 296.15 121.615 300.54C122.865 307.89 121.045 309.42 113.685 306.94C112.805 304.95 112.315 303.27 114.265 301.28C118.865 296.59 120.195 289.54 125.745 285.37C127.775 283.84 127.335 280.86 127.685 278.49C129.365 278.16 129.325 280.06 130.445 280.34C130.585 280.57 130.595 280.82 130.485 281.07V281.06Z" fill="#BB232E"/>
<path d="M71.9553 187.25C70.6453 187.28 70.5453 185.77 69.5553 185.39C70.2153 181.84 71.4353 178.28 69.5553 174.74C68.3953 172.56 67.4453 170.28 64.1653 170.57C62.1153 170.75 60.7753 169.36 60.5253 167.26C60.3453 165.72 61.1353 164.71 62.6453 164.39C64.7853 163.94 66.1553 164.61 67.5553 166.58C72.0653 172.91 73.9953 179.62 71.9453 187.26L71.9553 187.25Z" fill="#2C2E42"/>
<path d="M119.455 281.79C118.405 283.42 115.765 283.59 115.565 286C115.295 286.49 114.915 286.88 114.435 287.18C99.9054 296.11 83.6754 298.99 67.0354 300.31C64.5654 300.51 62.0354 300.39 59.8554 298.86C56.2654 294.63 55.0654 289.19 52.6554 284.36C49.9454 278.92 47.6954 273.24 44.9454 267.81C44.8754 267.57 44.8154 267.34 44.7554 267.1C45.2554 265.85 46.4454 265.53 47.5354 265.32C56.5054 263.57 64.9154 260.08 73.4754 257.08C76.1654 258.63 76.1854 259.49 73.5854 262.03C72.1154 262.01 70.6454 261.99 69.1754 261.97C68.4954 261.97 67.7554 262.05 67.8054 262.9C67.8554 263.95 68.9154 263.89 69.6054 264.2C71.3354 265.11 73.8254 264.01 74.8654 266.91C76.7954 272.32 75.5754 274.42 69.8354 274.59C68.7654 274.62 67.4954 274.05 66.6754 275.31C68.6054 278.82 72.0354 276.18 74.5654 277.23C76.4254 279.99 79.0954 280.54 82.2854 280.65C93.8854 281.07 105.365 279.36 116.915 279.05C118.835 279 120.935 278.68 119.465 281.76L119.455 281.79Z" fill="#8DC342"/>
<path d="M141.465 225.28C142.465 224.63 142.785 223.27 142.335 222.67C139.525 218.93 142.455 216.72 144.355 214.19C151.685 204.4 159.015 194.61 167.265 183.58V233.88C165.805 235.6 163.855 234.63 162.165 234.66C155.525 234.8 148.885 234.72 142.245 234.71C136.885 234.71 136.945 234.71 138.785 229.88C139.435 228.17 139.795 226.36 141.475 225.27L141.465 225.28Z" fill="#FEFEFE"/>
<path d="M114.435 286.19C114.815 286.13 115.195 286.07 115.575 286C118.745 285.17 119.665 285.91 118.565 289.33C116.245 296.54 111.625 301.76 105.495 305.87C104.095 306.54 102.695 307.21 101.295 307.87C92.8051 310.16 84.2451 310.47 75.5951 308.94C69.6351 308.94 65.1951 306.25 63.2651 301.5C64.6051 299.3 66.8051 300.2 68.6851 300.03C82.5651 298.78 96.1251 296.29 108.815 290.19C110.935 289.17 112.865 287.94 114.435 286.18V286.19Z" fill="#0A9348"/>
<path d="M35.6155 230.14C35.5155 224.56 39.6755 220.2 45.0855 220.2C50.3655 220.2 55.1655 225.33 55.2655 231.08C55.3555 236.03 50.9355 240.27 45.5855 240.38C40.2855 240.48 35.7255 235.8 35.6155 230.14V230.14Z" fill="#F6F2D1"/>
<path d="M89.6755 215.39C89.5355 220.37 84.5955 224.79 79.2555 224.72C73.7555 224.65 69.3755 220.16 69.6355 214.86C69.9055 209.38 74.2855 206.08 80.8855 206.37C85.6055 206.58 89.8055 210.89 89.6755 215.4V215.39Z" fill="#F5F1D0"/>
<path d="M66.6753 275.33C67.0653 274.52 67.7853 274.3 68.6053 274.09C70.5853 273.58 73.9853 275.51 74.2753 272.3C74.5753 269.05 74.1153 265.19 69.6053 264.22C79.2453 264.7 88.8053 264.68 97.8253 260.47C99.2953 259.78 100.725 259.9 101.705 261.51C102.875 263.43 101.705 264.77 100.395 265.75C94.6153 270.08 88.0853 272.89 80.9853 274.04C76.2753 274.8 71.4553 274.93 66.6853 275.34L66.6753 275.33Z" fill="#7EB342"/>
<path d="M58.5854 308.82C55.3454 308.28 52.2054 312.22 48.8754 308.91C44.0554 304.12 41.2354 298.27 39.5754 291.8C39.1854 290.28 40.7254 289.57 41.5054 288.57C43.9354 285.44 45.2854 282.07 43.8354 278.08C44.8454 276.19 45.8554 276.98 46.7254 278.16C47.7354 279.52 47.8454 281.16 47.9054 282.79C47.0754 288.11 49.2754 292.16 53.2554 295.46C55.3654 299.78 59.4354 303.33 58.5854 308.82V308.82Z" fill="#BD232E"/>
<path d="M102.555 309.05C106.555 310.35 108.655 314.8 107.505 319.68C107.245 320.78 106.795 321.84 106.435 322.92C101.205 324.95 95.7152 323.3 90.3952 324.01C89.2352 323.21 88.0752 322.42 85.8652 320.9C91.9852 321.25 94.6752 319.49 94.9252 314.08C95.1152 309.81 100.215 311.11 102.565 309.04L102.555 309.05Z" fill="#FDFDFD"/>
<path d="M119.455 281.79C119.715 279.26 118.145 279.86 116.635 280.04C104.335 281.47 92.0252 282.37 79.6152 282.18C75.8252 282.12 73.9251 281.28 74.5651 277.25C88.9951 278.08 103.445 277.66 117.885 277.83C121.145 277.87 120.645 279.79 119.455 281.79V281.79Z" fill="#80B542"/>
<path d="M58.5852 308.82C57.2552 304.27 54.6052 300.35 52.6152 296.11C56.4352 294.19 57.9652 297.3 59.9452 299.42C62.2152 303.2 65.6552 305.65 69.4252 307.74C70.9552 308.59 72.9152 308.94 73.5152 310.97C73.2952 312.39 73.8652 313.91 72.4552 316.1C69.3552 310.47 64.5652 308.31 58.5852 308.81V308.82Z" fill="#A9212E"/>
<path d="M131.505 232.39C128.115 231.97 125.825 230.52 126.645 226.65C127.555 222.37 130.345 223 133.435 224.13C135.465 224.87 137.545 224.59 139.385 223.3C140.755 230.64 138.365 233.39 131.495 232.39H131.505Z" fill="#8ABF41"/>
<path d="M90.6255 326.88C91.0455 327.17 91.4555 327.46 91.8655 327.74C86.2255 327.8 80.5855 327.87 74.9455 327.93C72.8655 327.95 70.5655 327.89 70.8455 324.99C71.1555 321.76 73.1855 322.68 75.1155 323.6C75.6755 323.87 76.6155 324.1 77.0255 323.82C82.6855 319.97 86.4655 324.19 90.6155 326.88H90.6255Z" fill="#59371B"/>
<path d="M102.945 251.47C104.455 253.64 106.115 253.12 107.925 252.46C109.955 251.71 112.775 252.22 112.925 253.95C113.095 255.92 113.666 259.19 110.436 260.24C108.386 260.9 106.445 262.56 104.095 260.69C100.875 258.13 101.326 255.14 102.936 251.47H102.945Z" fill="#7EB342"/>
<path d="M111.685 306.99C114.115 309.49 114.255 312.95 115.275 316C115.855 317.73 114.495 318.75 112.785 318.96C111.165 319.16 109.525 318.91 109.695 316.82C110.005 313.08 107.985 310.16 106.595 307.01C108.295 307.39 109.965 303.69 111.685 306.98V306.99Z" fill="#6D4829"/>
<path d="M86.3754 318.99C84.9554 318.41 82.7054 319.82 83.2054 316.93C83.7654 313.71 84.8754 311.37 88.8954 311.9C90.9154 312.16 92.7854 311.74 92.6354 314.86C92.3954 319.71 88.4954 317.93 86.3754 319V318.99Z" fill="#A7212E"/>
<path d="M131.505 232.39C135.805 232.043 138.435 229.013 139.395 223.3C140.085 223.96 140.775 224.62 141.475 225.27C140.565 228.18 140.355 231.31 138.155 233.88C148.155 233.88 157.715 233.88 167.275 233.88C167.105 234.15 166.925 234.67 166.755 234.67C154.965 234.64 142.955 237.78 131.515 232.39H131.505Z" fill="#242A3B"/>
<path d="M75.5853 310.97C82.0953 312.09 82.6153 312.95 80.6553 318.25C79.8553 320.4 78.4753 321.84 76.3753 321.51C73.8853 321.12 74.7253 318.74 74.6253 317.04C75.8453 315.16 74.3653 312.86 75.5853 310.98V310.97Z" fill="#6D4828"/>
<path d="M46.6752 283.14C46.1052 281.24 47.9052 278.01 43.8252 278.08C43.3852 276.78 42.9352 275.49 42.4952 274.19C41.6852 271.18 39.9252 268.59 38.8252 265.71C38.2552 264.22 37.1852 262.76 38.6452 261.2C41.4352 262.39 41.3552 266.54 44.7552 267.1L44.6752 267.02C46.7452 270 47.7952 273.47 49.0352 276.81C49.9652 279.31 50.0152 281.98 46.6752 283.14Z" fill="#A9212E"/>
<path d="M38.6454 261.21C38.9554 264.66 41.2654 267.31 42.3054 270.46C42.7054 271.66 44.4054 272.87 42.4954 274.2C42.1354 273.88 41.8254 273.47 41.4054 273.26C35.0354 270.11 34.7454 264.99 37.0854 259.02C38.2954 258.98 37.4554 261 38.6354 261.21H38.6454Z" fill="#B7222E"/>
<path d="M75.5851 310.97C75.3051 313 76.3151 315.23 74.6251 317.03C74.2051 315.02 75.4851 312.71 73.5251 310.98C68.3351 308.04 62.2751 306.21 59.5151 300.14C59.7151 300.01 59.9051 299.88 60.1051 299.75C61.6451 299.8 62.8951 300.28 63.3251 301.95C66.8751 305.24 71.0951 307.34 75.6051 308.95C75.6051 309.62 75.6051 310.3 75.6051 310.97H75.5851Z" fill="#221D31"/>
<path d="M73.5851 262.05C74.3851 260.38 75.4451 258.7 73.4751 257.1C75.3051 256.13 77.1351 255.17 79.0751 254.14C79.9484 259.727 78.1184 262.363 73.5851 262.05V262.05Z" fill="#7EB241"/>
<path d="M64.8052 241.2C66.4952 236.4 70.0552 235.21 74.6052 236.03C71.3952 237.81 67.6152 238.5 64.8052 241.2Z" fill="#DBD8BE"/>
<path d="M12.2152 188.9C10.8652 188.68 10.1852 188 9.99519 186.99C9.81519 185.99 10.5652 185.52 11.4252 185.47C12.5052 185.41 13.4152 185.96 13.3352 187.09C13.2852 187.75 12.5752 188.35 12.2152 188.9Z" fill="#A9B435"/>
<path d="M118.815 325.69C116.345 325.69 113.865 325.82 111.415 325.63C110.245 325.54 109.175 324.54 109.045 323.37C108.845 321.55 110.465 322 111.505 321.88C115.205 321.45 118.255 317.17 122.535 320.04C123.485 320.68 124.665 320.98 125.565 321.67C126.575 322.44 128.135 323.3 127.735 324.69C127.305 326.17 125.565 325.84 124.265 325.86C122.445 325.88 120.635 325.86 118.815 325.86V325.67V325.69Z" fill="#58361A"/>
<path d="M65.4551 168.23L64.9151 168.99C64.2051 168.4 62.8151 168.56 62.8651 167.21C62.8651 166.96 63.5151 166.55 63.8951 166.53C64.8451 166.46 65.4551 166.95 65.4651 168.23H65.4551Z" fill="#ADB835"/>
<path d="M46.6752 283.14C48.8852 280.44 48.6852 277.81 47.1752 274.71C46.0252 272.34 44.1752 270.01 44.6752 267.03C46.2052 266.85 46.5552 267.98 47.0352 269.06C51.2652 278.58 55.5252 288.08 59.7752 297.59C60.2152 298.4 60.2952 299.2 59.6552 299.96L59.5052 300.14C57.7352 297.9 55.7352 296.05 52.6152 296.11C47.6052 293.17 45.8252 288.76 46.6852 283.14H46.6752Z" fill="#151931"/>
<path d="M59.6655 299.96C59.7055 299.17 59.7455 298.38 59.7855 297.59C68.4055 300.76 76.8355 298.09 85.2255 296.55C95.4755 294.66 105.306 291.33 114.446 286.19C114.786 288.87 112.526 289.43 110.876 290.29C97.7555 297.12 83.5655 299.84 68.9755 301.03C67.0755 301.18 64.9755 300.27 63.3255 301.95C62.1055 301.29 60.8855 300.62 59.6755 299.96H59.6655Z" fill="#142533"/>
<path d="M46.0354 229.08C46.6754 229.4 49.2854 227.8 48.6754 230.8C48.3454 232.4 47.1854 233.45 45.4954 233.04C44.0054 232.68 42.8654 231.62 43.2554 229.84C43.5254 228.6 44.1654 227.67 46.0354 229.08V229.08Z" fill="#363B48"/>
<path d="M79.6754 218.97C77.7854 218.42 76.0054 217.7 76.4954 215.33C76.9454 213.16 79.5154 213.87 80.9054 212.64C81.7154 211.92 82.7454 213.88 82.7354 215.34C82.7354 217.46 81.8654 218.78 79.6754 218.97V218.97Z" fill="#242B3C"/>
</svg>
