<svg width="17" height="17" viewBox="0 0 17 17" fill="none" xmlns="http://www.w3.org/2000/svg">
<path d="M3.8426 5.66113H0.33728V16.9917H3.8426V5.66113Z" fill="#282828"/>
<path d="M2.07357 4.18006C3.21733 4.18006 4.14714 3.24201 4.14714 2.09003C4.14714 0.938044 3.21733 0 2.07357 0C0.929816 0 0 0.938044 0 2.09003C0 3.24201 0.929816 4.18006 2.07357 4.18006Z" fill="#282828"/>
<path d="M9.45443 11.0512C9.45443 9.45491 10.1868 8.50864 11.5938 8.50864C12.8857 8.50864 13.5028 9.42199 13.5028 11.0512V17.0004H16.9917V9.82519C16.9917 6.78889 15.2719 5.32422 12.8692 5.32422C10.4665 5.32422 9.45443 7.20031 9.45443 7.20031V5.66982H6.08899V17.0004H9.45443V11.0512Z" fill="#282828"/>
</svg>
