<svg width="19" height="17" viewBox="0 0 19 17" fill="none" xmlns="http://www.w3.org/2000/svg">
<path d="M4.84211 17H0.870701L0.847656 6H4.81906L4.84211 17Z" fill="#596778"/>
<path d="M2.83252 4H2.81133C1.61759 4 0.847656 3.10813 0.847656 1.99809C0.847656 0.861244 1.64231 0 2.85724 0C4.07218 0 4.81739 0.861244 4.84211 1.99809C4.84211 3.10813 4.06865 4 2.83252 4Z" fill="#596778"/>
<path d="M18.8227 17H14.7948V10.6106C14.7948 9.06458 14.3777 8.01235 12.972 8.01235C11.8984 8.01235 11.3191 8.7227 11.0411 9.41026C10.9368 9.65717 10.9098 9.99525 10.9098 10.3409V17H6.86253L6.83936 5.23932H10.8866L10.9098 6.89934C11.4272 6.11301 12.2884 5 14.3507 5C16.9072 5 18.8189 6.64103 18.8189 10.17V17H18.8227Z" fill="#596778"/>
</svg>
