<svg width="23" height="18" viewBox="0 0 23 18" fill="none" xmlns="http://www.w3.org/2000/svg">
<path d="M22.9002 2.13376C22.092 2.49419 21.2231 2.73929 20.3113 2.84742C21.241 2.28514 21.9562 1.39487 22.2923 0.335202C21.4234 0.854225 20.4579 1.23268 19.4317 1.43813C18.6092 0.555066 17.4364 0 16.142 0C13.6532 0 11.6329 2.03644 11.6329 4.54505C11.6329 4.90188 11.6723 5.2479 11.7509 5.5795C8.00352 5.39207 4.68164 3.5827 2.46109 0.832599C2.07133 1.503 1.84963 2.28514 1.84963 3.11774C1.84963 4.69283 2.64345 6.0841 3.85564 6.89868C3.11546 6.87345 2.42176 6.67161 1.81388 6.3292C1.81388 6.35082 1.81388 6.36884 1.81388 6.38686C1.81388 8.58911 3.36576 10.4273 5.42897 10.8418C5.04994 10.9463 4.65303 11.004 4.24182 11.004C3.95218 11.004 3.66612 10.9752 3.39436 10.9211C3.96649 12.7269 5.63279 14.0388 7.60304 14.0785C6.06188 15.2968 4.11667 16.0212 2.00697 16.0212C1.64224 16.0212 1.28466 15.9996 0.930664 15.9563C2.92594 17.2467 5.29309 18 7.83904 18C16.1312 18 20.6653 11.0761 20.6653 5.07129C20.6653 4.87665 20.6581 4.67841 20.651 4.48378C21.5306 3.84221 22.2958 3.04205 22.9002 2.13376Z" fill="#596778"/>
</svg>
