<svg width="18" height="15" viewBox="0 0 18 15" fill="none" xmlns="http://www.w3.org/2000/svg">
<path d="M0.00819691 13.3016C1.63934 14.3778 3.58197 15 5.66393 15C12.5164 15 16.3852 9.0639 16.1557 3.73318C16.877 3.20347 17.5 2.53083 18 1.7741C17.3361 2.07679 16.623 2.27859 15.8771 2.37108C16.6393 1.90022 17.2213 1.16032 17.5 0.277468C16.7869 0.714688 16 1.02579 15.1557 1.19395C14.4836 0.454038 13.5246 0 12.459 0C10.0738 0 8.32787 2.27859 8.86066 4.64966C5.79508 4.48991 3.07377 2.98487 1.2541 0.689462C0.286885 2.38789 0.754098 4.61603 2.39344 5.74271C1.78689 5.7259 1.22131 5.54933 0.721312 5.27186C0.680328 7.02915 1.90984 8.66872 3.68033 9.03027C3.16393 9.17321 2.59016 9.20684 2.01639 9.09754C2.48361 10.6026 3.85246 11.6956 5.46721 11.7293C3.91803 12.9737 1.95902 13.537 0 13.2932L0.00819691 13.3016Z" fill="#282828"/>
</svg>
