<svg width="22" height="19" viewBox="0 0 22 19" fill="none" xmlns="http://www.w3.org/2000/svg">
<path d="M20.7656 15.7891L12.4453 1.57031C11.7812 0.476562 10.1797 0.476562 9.55469 1.57031L1.19531 15.7891C0.570312 16.8828 1.35156 18.25 2.64062 18.25H19.3203C20.6094 18.25 21.3906 16.8828 20.7656 15.7891ZM10.0625 6.0625C10.0625 5.55469 10.4531 5.125 11 5.125C11.5078 5.125 11.9375 5.55469 11.9375 6.0625V11.0625C11.9375 11.6094 11.5078 12 11 12C10.5312 12 10.0625 11.6094 10.0625 11.0625V6.0625ZM11 15.75C10.2969 15.75 9.75 15.2031 9.75 14.5391C9.75 13.875 10.2969 13.3281 11 13.3281C11.6641 13.3281 12.2109 13.875 12.2109 14.5391C12.2109 15.2031 11.6641 15.75 11 15.75Z" fill="#F19035"/>
</svg>
