<svg width="23" height="17" viewBox="0 0 23 17" fill="none" xmlns="http://www.w3.org/2000/svg">
<path fill-rule="evenodd" clip-rule="evenodd" d="M4.0073 0.579545C5.7298 0.325995 8.5618 0 11.7616 0C14.9614 0 17.7934 0.325995 19.5159 0.579545C20.9258 0.784802 22.0475 1.87145 22.2989 3.26598C22.5257 4.48544 22.7463 6.26634 22.7463 8.5C22.7463 10.7276 22.5257 12.5085 22.305 13.734C22.0475 15.1286 20.9258 16.2152 19.5159 16.4205H19.5098C17.7811 16.674 14.943 17 11.7616 17C8.58019 17 5.73593 16.674 4.0073 16.4205C2.59743 16.2092 1.47566 15.1286 1.21821 13.734C0.997531 12.5146 0.776855 10.7337 0.776855 8.5C0.776855 6.26634 0.997531 4.48544 1.21821 3.26598C1.47566 1.87145 2.59743 0.784802 4.0073 0.579545ZM16.4693 8.5L8.6231 12.3636V4.63636L16.4693 8.5Z" fill="#596778"/>
</svg>
