<svg width="19" height="13" viewBox="0 0 19 13" fill="none" xmlns="http://www.w3.org/2000/svg">
<path d="M18.602 2.02812C18.3809 1.22547 17.7397 0.601985 16.9216 0.386991C15.4403 6.40734e-07 9.5 0 9.5 0C9.5 0 3.55974 6.40734e-07 2.07836 0.386991C1.26028 0.601985 0.619085 1.23264 0.397983 2.02812C-4.39289e-08 3.47575 0 6.5 0 6.5C0 6.5 -4.39289e-08 9.52426 0.397983 10.9719C0.619085 11.7745 1.26028 12.398 2.07836 12.613C3.55974 13 9.5 13 9.5 13C9.5 13 15.4403 13 16.9216 12.613C17.7397 12.398 18.3809 11.7674 18.602 10.9719C19 9.52426 19 6.5 19 6.5C19 6.5 19 3.47575 18.602 2.02812ZM7.56168 9.24476V3.75524L12.5217 6.5L7.56168 9.24476Z" fill="#282828"/>
</svg>
