<svg width="33" height="32" viewBox="0 0 33 32" fill="none" xmlns="http://www.w3.org/2000/svg">
<path fill-rule="evenodd" clip-rule="evenodd" d="M0 31.9998H17.2752L14.8754 28.1193L32.9998 5.34058e-05H0V31.9998Z" fill="#F04864"/>
<path fill-rule="evenodd" clip-rule="evenodd" d="M33.0001 32H14.2947L6.85059 20.4001L19.2453 10.6668L33.0001 32Z" fill="#CC1433"/>
<path fill-rule="evenodd" clip-rule="evenodd" d="M15.4002 25.3867C20.7461 25.3867 25.0801 21.184 25.0801 16C25.0801 10.8159 20.7461 6.61344 15.4002 6.61344C10.054 6.61344 5.72021 10.8159 5.72021 16C5.72021 21.184 10.054 25.3867 15.4002 25.3867Z" fill="white"/>
<path fill-rule="evenodd" clip-rule="evenodd" d="M11.2202 21.1198V10.8799H16.1983C18.4613 10.8799 20.0452 12.4159 20.0452 14.3907C20.0452 16.585 18.2351 17.3895 18.2351 17.3895L20.4223 21.1198H17.4053L15.5951 17.9015H14.0864V21.1198H11.2202ZM17.1789 14.3907C17.1789 13.8055 16.7263 13.3667 16.0474 13.3667H14.0864V15.4147H16.0474C16.7263 15.4147 17.1789 14.9758 17.1789 14.3907Z" fill="#CC1433"/>
</svg>
