<svg width="32" height="32" viewBox="0 0 32 32" fill="none" xmlns="http://www.w3.org/2000/svg">
<path fill-rule="evenodd" clip-rule="evenodd" d="M0 32H16L15.9942 25.6085L32 0H0L0 32Z" fill="#9DCC3D"/>
<path fill-rule="evenodd" clip-rule="evenodd" d="M32 31.9999H12.0503L6.05395 22.3082L16.3981 6.94434L32 31.9999Z" fill="#67B340"/>
<path d="M14.1669 26.2783C19.8432 26.2783 24.4447 21.6768 24.4447 16.0005C24.4447 10.3242 19.8432 5.72272 14.1669 5.72272C8.49068 5.72272 3.88916 10.3242 3.88916 16.0005C3.88916 21.6768 8.49068 26.2783 14.1669 26.2783Z" fill="#67B340"/>
<path fill-rule="evenodd" clip-rule="evenodd" d="M17.3457 6.22853C18.0848 6.46868 18.7781 6.78463 19.4198 7.16498L19.4207 8.8963L17.9759 9.76203C17.4994 9.47197 16.9819 9.23225 16.4282 9.05235C12.5893 7.80501 8.46611 9.90589 7.21878 13.7448C5.97145 17.5837 8.07233 21.7069 11.9112 22.9542C15.7501 24.2015 19.8733 22.1007 21.1206 18.2618C22.0224 15.4864 21.1742 12.5625 19.1844 10.684L20.8866 8.2205C23.9229 10.8432 25.2621 15.1241 23.9445 19.1793C22.1904 24.5777 16.3922 27.5321 10.9937 25.778C5.59526 24.024 2.6409 18.2257 4.39497 12.8273C6.14903 7.42883 11.9473 4.47447 17.3457 6.22853Z" fill="white"/>
<path d="M10.2778 20.7443V11.2554H14.8035C16.8607 11.2554 18.3007 12.6954 18.3007 14.5469C18.3007 16.604 16.655 17.3583 16.655 17.3583C17.5052 18.8532 18.1428 19.9745 18.5679 20.7221C18.5847 20.7516 17.67 20.7516 15.8238 20.7221L14.1543 17.8383H12.8835V20.7443H10.2778ZM15.695 14.5469C15.695 13.9983 15.2835 13.5869 14.6664 13.5869H12.8835V15.5069H14.6664C15.2835 15.5069 15.695 15.0954 15.695 14.5469Z" fill="white"/>
</svg>
