<svg width="32" height="32" viewBox="0 0 32 32" fill="none" xmlns="http://www.w3.org/2000/svg">
<g clip-path="url(#clip0_8587_64836)">
<path d="M2.41026 28.6367L4.88938 8.31678C5.0174 7.26752 6.19962 6.75574 7.0249 7.41622C8.57583 8.65744 11.0023 10.7145 13.9259 13.5875C15.3149 14.9526 16.8162 16.5019 18.3892 18.2353C20.1665 20.1939 21.6999 22.0056 23.0041 23.6279C25.8832 27.2095 23.2709 32 18.6756 32H5.38819C3.58724 32 2.19216 30.4244 2.41026 28.6367Z" fill="#00A0E0"/>
<path d="M23.8192 32H5.1073C4.38031 32 3.89712 31.2491 4.20728 30.5916C7.72616 23.1319 11.974 16.3284 13.9259 13.5875C15.3149 14.9526 16.8162 16.5018 18.3892 18.2353C21.8607 22.061 24.4017 25.326 26.1215 27.7146C27.464 29.5793 26.1169 32 23.8192 32Z" fill="#0091C4"/>
<path d="M29.5897 28.6367L27.1106 8.31678C26.9826 7.26752 25.8005 6.75562 24.9752 7.41609C22.6875 9.24703 18.4944 12.8534 13.6108 18.2353C8.66608 23.6846 5.609 27.9963 4.12431 30.2582C3.61999 31.0266 4.17551 32 5.09458 32H26.6118C28.4128 32 29.8078 30.4244 29.5897 28.6367Z" fill="#99C412"/>
<path d="M18.7628 1.76278C17.9042 1.03004 16.7897 0.668377 15.6645 0.757343C14.5393 0.84631 13.4955 1.37862 12.7628 2.23718C12.0301 3.09573 11.6684 4.2102 11.7574 5.33542C11.8463 6.46063 12.3786 7.50442 13.2372 8.23716L16 4.99997L18.7628 1.76278Z" fill="#00A0E0"/>
<path d="M13.2372 8.23722C14.0958 8.96996 15.2103 9.33162 16.3355 9.24266C17.4607 9.15369 18.5045 8.62138 19.2372 7.76282C19.9699 6.90427 20.3316 5.7898 20.2426 4.66458C20.1537 3.53937 19.6214 2.49558 18.7628 1.76284L16 5.00003L13.2372 8.23722Z" fill="#99C412"/>
</g>
<defs>
<clipPath id="clip0_8587_64836">
<rect width="32" height="32" fill="white"/>
</clipPath>
</defs>
</svg>
