<svg width="32" height="32" viewBox="0 0 32 32" fill="none" xmlns="http://www.w3.org/2000/svg">
<path fill-rule="evenodd" clip-rule="evenodd" d="M0 31.9999H11.998L31.9957 0H0V31.9999Z" fill="#9DCC3D"/>
<path fill-rule="evenodd" clip-rule="evenodd" d="M31.9959 32H12.1918L7.11035 23.8331L18.7745 10.8866L31.9959 32Z" fill="#67B240"/>
<path fill-rule="evenodd" clip-rule="evenodd" d="M7.63761 7.91776H22.0961C22.5658 7.91776 22.9466 8.2987 22.9466 8.76855V23.2319C22.9466 23.7017 22.5658 24.0827 22.0961 24.0827H7.63761C7.16792 24.0827 6.78711 23.7017 6.78711 23.2319V8.76855C6.78711 8.2987 7.16792 7.91776 7.63761 7.91776Z" fill="white"/>
<path fill-rule="evenodd" clip-rule="evenodd" d="M16.2691 18.3895C16.2691 16.763 11.0303 17.78 11.0303 14.0496C11.0303 12.4312 12.6079 10.8866 15.0117 10.8866C17.5656 10.8866 18.6925 12.3576 18.6925 12.3576L17.4371 14.3703C17.3319 14.2262 17.2018 14.081 17.0473 13.9349C17.0473 13.9349 16.3487 13.2405 15.3121 13.2405C14.6361 13.2405 13.9629 13.4999 13.9629 14.1232C13.9629 15.5208 19.068 14.7851 19.068 18.3895C19.068 20.2284 17.4907 21.7732 14.8614 21.7732C12.8473 21.7732 11.5537 20.8461 10.9883 20.3355C10.9883 20.3355 11.4092 19.6623 12.2508 18.3159C12.2508 18.3159 13.2089 19.4193 14.561 19.4193C15.518 19.4193 16.2691 19.1195 16.2691 18.3895Z" fill="#67B240"/>
</svg>
