<svg width="32" height="32" viewBox="0 0 32 32" fill="none" xmlns="http://www.w3.org/2000/svg">
<path fill-rule="evenodd" clip-rule="evenodd" d="M0 31.9999H11.9978L31.9957 0H0L0 31.9999Z" fill="#9DCC3D"/>
<path fill-rule="evenodd" clip-rule="evenodd" d="M31.9956 32H11.9977L7.91512 23.4763L19.0129 10.0001L31.9956 32Z" fill="#67B340"/>
<path fill-rule="evenodd" clip-rule="evenodd" d="M7.9988 7.3333H23.3834C23.7368 7.3333 24.0233 7.61983 24.0233 7.9733V23.3599C24.0233 23.7134 23.7368 23.9999 23.3834 23.9999H7.9988C7.64539 23.9999 7.35889 23.7134 7.35889 23.3599V7.9733C7.35889 7.61983 7.64539 7.3333 7.9988 7.3333Z" fill="white"/>
<path d="M12.494 11.3335C14.4842 11.3335 15.3622 12.5046 15.3622 12.5046C14.7101 13.5728 14.384 14.1068 14.384 14.1068C14.3019 13.9921 14.2007 13.8765 14.0803 13.7601C14.0803 13.7601 13.5359 13.2073 12.7281 13.2073C12.2013 13.2073 11.6768 13.4139 11.6768 13.91C11.6768 15.0227 15.6548 14.4371 15.6548 17.3064C15.6548 18.7704 14.4256 20.0001 12.3769 20.0001C10.8075 20.0001 9.79951 19.2621 9.35889 18.8557C9.35889 18.8557 9.68682 18.3198 10.3427 17.2479C10.3427 17.2479 11.0892 18.1262 12.1428 18.1262C12.8885 18.1262 13.4739 17.8875 13.4739 17.3064C13.4739 16.0116 9.39167 16.8212 9.39167 13.8515C9.39167 12.5632 10.6209 11.3335 12.494 11.3335ZM21.3573 11.7668V13.4243H18.0436V14.8398H20.5776V16.5126H18.0436V17.958H21.3573V19.5668H16.2894V11.7668H21.3573Z" fill="#67B340"/>
</svg>
