<svg width="32" height="32" viewBox="0 0 32 32" fill="none" xmlns="http://www.w3.org/2000/svg">
<path fill-rule="evenodd" clip-rule="evenodd" d="M0 32H11.9534L31.877 0H0V32Z" fill="#D0C711"/>
<path fill-rule="evenodd" clip-rule="evenodd" d="M31.8769 32.0001H11.4406L4.31738 20.6985L10.4212 8.76562L16.7583 9.92459L20.7852 13.6775L31.8769 32.0001Z" fill="#D19200"/>
<path fill-rule="evenodd" clip-rule="evenodd" d="M20.0554 12.0783C19.4094 8.99641 16.5283 6.7302 13.0631 6.7302C8.65212 6.7302 5.42166 10.3352 5.81632 13.7778C4.24117 14.5253 3.1748 16.1664 3.1748 17.9491C3.1748 20.496 5.22695 22.5686 7.74867 22.5686H20.2506C23.1404 22.5686 25.4778 20.2073 25.4778 17.2891C25.4778 14.4409 23.2427 11.9652 20.0554 12.0783ZM17.6154 14.7048C16.6757 14.7048 15.971 15.4096 15.971 16.3023C15.971 17.195 16.6757 17.8997 17.6154 17.8997C18.6021 17.8997 19.2129 17.148 19.2129 17.148L20.4533 18.4635C20.4533 18.4635 19.4948 19.7791 17.5684 19.7791C15.4541 19.7791 13.8567 18.1816 13.8567 16.3023C13.8567 14.4229 15.4541 12.8254 17.5684 12.8254C19.4948 12.8254 20.4345 14.141 20.4345 14.141L19.1659 15.4565C19.1659 15.4565 18.5551 14.7048 17.6154 14.7048ZM8.12719 14.9397V13.0134H13.7183V14.9397H11.9799V19.5912H9.8656V14.9397H8.12719Z" fill="white"/>
</svg>
